<svg width="12" height="13" viewBox="0 0 12 13" fill="none" xmlns="http://www.w3.org/2000/svg">
<path d="M9 1.36675H11.4C11.5591 1.36675 11.7117 1.42996 11.8243 1.54248C11.9368 1.65501 12 1.80762 12 1.96675V11.5667C12 11.7259 11.9368 11.8785 11.8243 11.991C11.7117 12.1035 11.5591 12.1667 11.4 12.1667H0.6C0.44087 12.1667 0.288258 12.1035 0.175736 11.991C0.0632141 11.8785 0 11.7259 0 11.5667V1.96675C0 1.80762 0.0632141 1.65501 0.175736 1.54248C0.288258 1.42996 0.44087 1.36675 0.6 1.36675H3V0.166748H4.2V1.36675H7.8V0.166748H9V1.36675ZM1.2 4.96675V10.9667H10.8V4.96675H1.2ZM2.4 6.16675H3.6V7.36675H2.4V6.16675ZM2.4 8.56675H3.6V9.76675H2.4V8.56675ZM4.8 6.16675H9.6V7.36675H4.8V6.16675ZM4.8 8.56675H7.8V9.76675H4.8V8.56675Z" fill="#28C6F5"/>
</svg>
