<svg width="202" height="151" viewBox="0 0 202 151" fill="none" xmlns="http://www.w3.org/2000/svg">
<path d="M40.688 27.1296C40.688 27.1296 49.2915 32.1276 51.2608 38.5777C54.4138 48.9118 51.8128 65.2833 44.194 63.2642C38.0075 61.6231 42.901 48.0166 39.3801 44.4957C35.8541 40.9747 31.6568 37.2698 35.8541 27.2191L40.688 27.1296Z" fill="#2F2962"/>
<path d="M40.7427 27.2489C40.7179 27.239 40.698 27.2837 40.7228 27.2937C45.3975 29.6211 49.3512 32.963 51.594 37.772C54.1701 43.2972 54.0905 49.6826 51.5443 55.1978C51.5145 55.2575 51.604 55.3122 51.6338 55.2525C56.8158 44.9184 52.335 30.8047 40.7427 27.2489Z" fill="#2F2962"/>
<path d="M39.3254 45.8334C38.47 44.1674 37.1322 42.8446 36.0581 41.3327C33.114 37.1802 33.9843 32.0877 35.7497 27.6517C35.7746 27.592 35.6751 27.5522 35.6503 27.6119C33.845 31.2423 32.8206 35.4098 34.3672 39.3335C34.9938 40.9249 36.0779 42.2179 37.182 43.501C37.9727 44.421 38.8082 45.3411 39.3701 46.4252C40.131 47.8972 40.2852 49.5682 40.4543 51.1894C40.4593 51.2193 40.499 51.2193 40.499 51.1894C40.3896 49.3245 40.1907 47.5143 39.3254 45.8334Z" fill="#2F2962"/>
<path d="M9.56117 65.9695C9.56117 65.9695 0.902986 82.9725 0.962664 87.4334C1.02234 91.8943 2.0667 95.8081 3.74761 96.2458C5.43349 96.6834 12.2864 88.1645 13.3905 86.9361C14.4945 85.7078 19.1145 70.8033 20.5517 68.088C21.989 65.3777 12.8733 62.1899 9.56117 65.9695Z" fill="#F5BFA9"/>
<path d="M29.2845 46.9225C25.9276 48.2652 20.3776 50.165 18.9106 51.7066C17.4435 53.2433 3.04139 71.9472 2.73306 73.6181C2.42472 75.2891 9.46664 81.8387 12.6793 82.4504C15.8919 83.0671 19.01 81.7343 20.0146 80.9933C21.0242 80.2473 29.2845 46.9225 29.2845 46.9225Z" fill="#BFDDDA"/>
<path d="M63.5046 152.517C54.7918 158.648 31.3386 160.081 26.8379 159.041C22.3472 158.007 11.4809 153.795 10.4863 152.338C9.50163 150.89 8.2683 131.585 9.76024 120.898C10.4515 115.929 12.3512 107.759 14.1565 100.408C15.713 94.0726 17.1851 88.3585 17.7471 85.8222C17.936 84.9718 18.0206 84.4844 17.9708 84.4496C17.5879 84.2059 12.3612 77.4027 13.4055 72.7777C14.4499 68.1477 27.0318 48.4095 29.2797 46.9175C31.5176 45.4356 35.0833 46.3058 38.4849 46.5993C42.3441 46.9374 50.2065 53.0643 51.2111 56.3814C52.0367 59.1017 52.5986 77.3381 52.9766 84.3352C53.0561 85.852 53.1208 86.8466 53.1854 87.0356C53.4391 87.7766 55.5178 97.1658 57.4176 104.795C58.1934 107.918 58.9443 110.747 59.5262 112.568C61.5502 118.839 65.0911 151.403 63.5046 152.517Z" fill="#BFDDDA"/>
<path d="M20.1936 59.957C20.2582 59.8476 20.0941 59.7531 20.0245 59.8576C18.8857 61.5236 17.8413 63.2791 16.8666 65.0644C17.2197 63.9604 17.6374 62.8812 18.09 61.7921C18.1049 61.7573 18.0452 61.7324 18.0303 61.7673C17.2545 63.0951 16.7323 64.5572 16.3444 66.0491C16.2101 66.3027 16.0758 66.5514 15.9416 66.805C14.8873 68.844 13.6888 71.0869 13.2412 73.3645C12.4753 77.2535 15.2055 81.973 17.8463 84.6585C17.9457 84.7629 18.09 84.6088 18.0004 84.5043C15.0763 80.9535 12.6941 76.4479 14.39 71.8229C15.9167 67.6803 18.0352 63.7863 20.1936 59.957Z" fill="#2F2962"/>
<path d="M57.4323 104.8C55.8707 105.043 54.3241 105.123 53.1256 105.183C48.2867 105.421 43.3633 104.974 38.5892 104.213C33.5365 103.407 28.5733 102.089 23.824 100.204C21.9243 99.4535 20.5417 99.2745 18.4878 99.6226C17.4087 99.8016 16.3345 100.04 15.2553 100.234C14.8873 100.299 14.5292 100.364 14.1612 100.413C15.7178 94.0776 17.1899 88.3635 17.7518 85.8272C20.1688 85.2155 22.6603 84.8027 25.0374 84.2955C28.817 83.4799 32.0694 86.966 36.0976 86.9014C41.2498 86.8168 47.1976 82.4305 51.942 83.9772C52.295 84.0916 52.6382 84.2159 52.9863 84.3452C53.0659 85.862 53.1305 86.8566 53.1952 87.0456C53.4488 87.7816 55.5276 97.1708 57.4323 104.8Z" fill="#A1C9C4"/>
<path d="M27.3847 87.2893C25.7137 81.6548 25.3408 76.2788 26.5194 70.4802C27.6135 65.0744 29.3192 59.7383 31.3035 54.616C31.3284 54.5463 31.214 54.4966 31.1842 54.5662C28.8369 59.972 27.0813 65.8751 26.032 71.6936C25.1418 76.6369 25.0026 82.346 27.0863 87.0406C27.0217 87.0406 22.2375 136.021 27.5438 158.539C27.5787 158.678 27.7875 158.619 27.7577 158.479C22.6304 135.807 27.4096 87.3738 27.3847 87.2893Z" fill="#2F2962"/>
<path d="M31.194 62.2845C31.0399 62.553 30.4431 62.8066 30.2492 62.379C30.0651 61.9761 30.4182 61.4042 30.8957 61.6081C30.9553 61.633 31.0051 61.5584 30.9454 61.5186C30.3088 61.1108 29.7369 61.9562 29.9906 62.5381C30.2392 63.1001 31.2736 62.9409 31.2388 62.2944C31.2388 62.2745 31.209 62.2646 31.194 62.2845Z" fill="#2F2962"/>
<path d="M28.7821 77.358C28.6279 77.6265 28.0312 77.8802 27.8372 77.4525C27.6532 77.0496 28.0063 76.4777 28.4837 76.6816C28.5434 76.7065 28.5931 76.6319 28.5335 76.5921C27.8969 76.1843 27.325 77.0298 27.5786 77.6116C27.8273 78.1736 28.8617 78.0144 28.8269 77.3679C28.8269 77.3431 28.7921 77.3331 28.7821 77.358Z" fill="#2F2962"/>
<path d="M29.8961 85.3199C29.7419 85.5884 29.1451 85.8421 28.9512 85.4144C28.7672 85.0116 29.1203 84.4397 29.5977 84.6436C29.6574 84.6684 29.7071 84.5938 29.6474 84.554C29.0109 84.1463 28.439 84.9917 28.6926 85.5735C28.9412 86.1355 29.9756 85.9764 29.9408 85.3298C29.9408 85.31 29.906 85.3 29.8961 85.3199Z" fill="#2F2962"/>
<path d="M29.2397 101.194C29.0855 101.463 28.4887 101.716 28.2948 101.289C28.1108 100.886 28.4639 100.314 28.9413 100.518C29.001 100.543 29.0507 100.468 28.991 100.428C28.3545 100.02 27.7826 100.866 28.0362 101.448C28.2848 102.01 29.3192 101.851 29.2844 101.204C29.2844 101.184 29.2496 101.174 29.2397 101.194Z" fill="#2F2962"/>
<path d="M28.1256 117.879C27.9714 118.147 27.3747 118.401 27.1807 117.973C26.9967 117.571 27.3498 116.999 27.8272 117.203C27.8869 117.227 27.9366 117.153 27.8769 117.113C27.2404 116.705 26.6685 117.551 26.9221 118.133C27.1708 118.694 28.2052 118.535 28.1704 117.889C28.1704 117.869 28.1355 117.859 28.1256 117.879Z" fill="#2F2962"/>
<path d="M28.1256 133.455C27.9714 133.723 27.3747 133.977 27.1807 133.549C26.9967 133.146 27.3498 132.574 27.8272 132.778C27.8869 132.803 27.9366 132.729 27.8769 132.689C27.2404 132.281 26.6685 133.126 26.9221 133.708C27.1708 134.27 28.2052 134.111 28.1704 133.465C28.1704 133.445 28.1355 133.435 28.1256 133.455Z" fill="#2F2962"/>
<path d="M29.8961 92.7448C29.7419 93.0133 29.1451 93.2669 28.9512 92.8392C28.7672 92.4364 29.1203 91.8645 29.5977 92.0684C29.6574 92.0933 29.7071 92.0187 29.6474 91.9789C29.0109 91.5711 28.439 92.4165 28.6926 92.9984C28.9412 93.5604 29.9756 93.4012 29.9408 92.7547C29.9408 92.7348 29.906 92.7199 29.8961 92.7448Z" fill="#2F2962"/>
<path d="M28.5833 109.33C28.4291 109.599 27.8323 109.852 27.6384 109.425C27.4544 109.022 27.8075 108.45 28.2849 108.654C28.3446 108.679 28.3943 108.604 28.3346 108.564C27.6981 108.156 27.1262 109.002 27.3798 109.584C27.6284 110.146 28.6629 109.987 28.628 109.34C28.628 109.32 28.5932 109.31 28.5833 109.33Z" fill="#2F2962"/>
<path d="M28.1256 125.846C27.9714 126.114 27.3747 126.368 27.1807 125.94C26.9967 125.537 27.3498 124.966 27.8272 125.169C27.8869 125.194 27.9366 125.12 27.8769 125.08C27.2404 124.672 26.6685 125.518 26.9221 126.099C27.1708 126.661 28.2052 126.502 28.1704 125.856C28.1704 125.836 28.1355 125.826 28.1256 125.846Z" fill="#2F2962"/>
<path d="M28.7821 149.478C28.6279 149.747 28.0312 150 27.8372 149.572C27.6532 149.17 28.0063 148.598 28.4837 148.802C28.5434 148.827 28.5931 148.752 28.5335 148.712C27.8969 148.304 27.325 149.15 27.5786 149.732C27.8273 150.294 28.8617 150.134 28.8269 149.488C28.8269 149.463 28.7921 149.453 28.7821 149.478Z" fill="#2F2962"/>
<path d="M28.1256 141.009C27.9714 141.277 27.3747 141.531 27.1807 141.103C26.9967 140.7 27.3498 140.129 27.8272 140.332C27.8869 140.357 27.9366 140.283 27.8769 140.243C27.2404 139.835 26.6685 140.681 26.9221 141.262C27.1708 141.824 28.2052 141.665 28.1704 141.019C28.1704 140.994 28.1355 140.984 28.1256 141.009Z" fill="#2F2962"/>
<path d="M29.4388 69.8237C29.2846 70.0922 28.6878 70.3459 28.4939 69.9182C28.3099 69.5154 28.663 68.9435 29.1404 69.1473C29.2001 69.1722 29.2498 69.0976 29.1901 69.0578C28.5535 68.65 27.9816 69.4955 28.2353 70.0773C28.4839 70.6393 29.5183 70.4801 29.4835 69.8336C29.4835 69.8137 29.4487 69.8038 29.4388 69.8237Z" fill="#2F2962"/>
<path d="M28.8418 84.4397C25.8779 83.7782 23.2521 84.6336 20.3677 85.1458C20.3428 85.1508 20.3478 85.1906 20.3726 85.1906C21.5612 85.2105 22.6503 84.9071 23.819 84.7331C25.5049 84.4794 27.1211 84.5789 28.812 84.6784C28.9463 84.6834 28.9761 84.4695 28.8418 84.4397Z" fill="#2F2962"/>
<path d="M43.1793 84.2606C40.4988 86.3493 37.4204 87.2047 34.0735 86.4289C31.4129 85.8122 29.0756 84.6634 26.3155 85.4641C26.2757 85.474 26.2807 85.5486 26.3254 85.5437C29.921 85.1657 33.0739 87.3887 36.6297 87.3439C39.1511 87.3141 41.6327 86.2896 43.3931 84.4745C43.5324 84.3302 43.3285 84.1412 43.1793 84.2606Z" fill="#2F2962"/>
<path d="M44.2038 98.5235L21.2629 100.229C20.1389 100.314 19.1642 99.4733 19.0797 98.3494L16.7672 67.2575C16.6826 66.1336 17.5231 65.1589 18.647 65.0743L41.588 63.3685C42.7119 63.284 43.6866 64.1244 43.7712 65.2484L46.0836 96.3403C46.1682 97.4592 45.3228 98.4389 44.2038 98.5235Z" fill="#E1916E"/>
<path d="M35.9484 65.8801L24.8235 66.6956C24.361 66.7305 23.9582 66.3823 23.9234 65.9198L23.7643 63.7168C23.7295 63.2543 24.0776 62.8514 24.5401 62.8166L35.6649 62.001C36.1274 61.9662 36.5302 62.3143 36.5651 62.7768L36.7242 64.9799C36.754 65.4424 36.4109 65.8452 35.9484 65.8801Z" fill="#BEC1DF"/>
<path d="M33.447 60.1609L33.5912 62.1551L32.0147 62.2695L31.9501 61.3544C31.9152 60.8721 31.4925 60.509 31.0101 60.5438L28.9264 60.698C28.444 60.7328 28.081 61.1555 28.1158 61.6379L28.1804 62.553L26.604 62.6673L26.4598 60.6731C26.41 59.9719 26.9322 59.3652 27.6334 59.3155L32.0843 58.9922C32.7855 58.9375 33.3972 59.4597 33.447 60.1609Z" fill="#BEC1DF"/>
<path d="M56.8306 70.9874C58.5612 72.2903 60.7792 91.1832 60.9085 93.3166C61.0378 95.4551 58.4916 99.5479 57.8053 99.722C57.119 99.8961 50.5993 97.4692 49.0129 95.3855C47.4264 93.3017 46.5462 74.3641 46.8694 73.2103C47.1977 72.0516 55.2193 69.7739 56.8306 70.9874Z" fill="#F5BFA9"/>
<path d="M45.9394 50.3887C46.7848 51.4878 54.4732 55.5757 55.9005 58.291C57.3278 61.0063 62.2661 80.8789 62.7336 82.0376C63.201 83.1963 57.3179 86.3294 54.2793 86.8715C51.2407 87.4135 47.0136 86.2697 45.5216 85.4641C44.0297 84.6535 45.9394 50.3887 45.9394 50.3887Z" fill="#BFDDDA"/>
<path d="M44.6465 67.1332C44.6415 67.0934 44.5818 67.0934 44.5868 67.1332C44.92 73.2402 45.0443 79.3721 44.8752 85.489C44.8703 85.7376 45.2532 85.7376 45.2631 85.489C45.5566 79.3422 45.3775 73.2402 44.6465 67.1332Z" fill="#2F2962"/>
<path d="M53.0461 58.0076C49.0129 59.4448 46.0937 62.8763 45.467 67.1332C45.4621 67.178 45.5267 67.1979 45.5367 67.1531C46.3174 63.0105 49.1024 59.5592 53.061 58.0524C53.0858 58.0374 53.0759 57.9976 53.0461 58.0076Z" fill="#2F2962"/>
<path d="M57.9344 99.6573C56.5518 100.617 42.3536 101.149 35.2619 99.886C31.2536 99.1749 25.3406 97.4542 20.9493 95.813C17.5676 94.5449 15.0811 93.3215 15.0612 92.6402C15.0114 91.0687 18.1196 87.687 20.1139 87.8909C22.1031 88.0948 33.8844 87.0206 38.1265 87.2941C41.5529 87.5179 44.9346 87.6472 47.7793 87.876C50.6885 88.1047 53.0259 88.4429 54.2741 89.0794C56.7358 90.3277 57.9344 99.6573 57.9344 99.6573Z" fill="#F5BFA9"/>
<path d="M47.784 87.8712C46.7198 88.6967 45.5859 89.4427 44.4819 90.1091C41.0902 92.163 37.3455 93.6002 33.4963 94.5202C29.473 95.49 25.1613 96.0768 20.9541 95.8083C17.5724 94.5401 15.0858 93.3167 15.0659 92.6354C15.0162 91.0639 18.1244 87.6822 20.1186 87.8861C22.1079 88.09 33.8892 87.0158 38.1312 87.2893C41.5577 87.5131 44.9444 87.6424 47.784 87.8712Z" fill="#BF847C"/>
<path d="M48.1622 87.7617C48.1274 87.7617 48.1174 87.8164 48.1522 87.8214C51.892 88.5574 54.1399 90.6113 56.0595 93.809C56.1192 93.9135 56.3032 93.8438 56.2584 93.7245C55.04 90.4621 51.7378 87.7219 48.1622 87.7617Z" fill="#BF847C"/>
<path d="M3.74764 96.2458C7.22882 98.1952 33.9096 90.7754 35.5606 89.6912C36.053 89.368 43.1745 89.0646 44.3929 88.9055C45.6113 88.7463 47.6702 87.4384 47.7895 86.7123C47.9089 85.9863 47.6353 85.3497 47.516 85.0563C47.3966 84.7629 48.2072 83.624 48.1227 83.1019C48.0431 82.5846 47.4961 81.8536 47.3618 81.5602C47.2275 81.2668 47.5409 79.9638 47.3568 79.5958C47.1728 79.2278 46.3374 78.7902 46.0837 78.4669C45.8251 78.1437 46.3274 77.711 45.7555 77.3679C44.1293 76.3882 36.0828 80.6203 34.8545 81.0281C33.6311 81.4359 22.3769 81.5502 19.4577 81.8834C16.5385 82.2166 11.7295 82.525 8.69091 85.2453C5.64737 87.9606 3.74764 96.2458 3.74764 96.2458Z" fill="#F5BFA9"/>
<path d="M14.6734 82.4057C10.4065 82.3112 7.19884 86.3593 5.55274 89.8504C5.5229 89.9101 5.60247 89.9598 5.64225 89.9002C7.95475 86.225 10.3916 83.6738 14.7033 82.6096C14.8176 82.5847 14.7878 82.4106 14.6734 82.4057Z" fill="#BF847C"/>
<path d="M34.7945 42.1284C30.8956 43.0385 28.6925 45.7438 27.4244 46.9821C26.1612 48.2254 22.501 56.0083 22.511 57.3561C22.5209 58.7038 29.349 52.8504 30.8011 52.8703C31.8057 52.8852 35.4311 60.8074 37.2612 60.4245C39.5837 59.9371 43.8506 53.1339 43.8705 49.5135C43.8754 48.3149 41.9906 45.2565 40.2849 43.7049C38.3404 41.9295 36.4357 41.7455 34.7945 42.1284Z" fill="#BFDDDA"/>
<path d="M43.9451 49.7522C43.9451 49.7223 43.9053 49.7174 43.8953 49.7472C42.4929 55.4613 38.2061 60.2952 37.2712 60.4344C36.187 60.5936 31.4029 52.6813 30.8459 52.6366C29.8065 52.557 22.8591 57.366 22.7596 57.2964C22.6801 57.2367 23.5901 54.039 26.8873 47.7629C26.9022 47.7331 26.8624 47.7132 26.8426 47.7381C23.0182 53.5815 21.8495 58.0075 22.3866 58.0026C23.0729 57.9976 27.7775 54.6507 30.6271 53.1687C31.9848 55.0734 36.0478 60.9765 37.0424 60.9765C38.9521 60.9715 43.6566 53.9893 43.9451 49.7522Z" fill="#2F2962"/>
<path d="M42.4879 33.331C42.4879 33.331 42.2194 36.0214 41.8862 39.1495C41.8365 39.5623 41.7967 39.985 41.7469 40.4028C41.3292 44.1972 40.2401 48.9316 40.0163 49.3693C39.5737 50.2246 35.7344 53.9495 32.6611 53.4373C29.5777 52.94 30.0502 49.9213 30.0502 49.9213L30.1049 48.3597V48.3398L30.2043 45.2565L30.4729 37.215L40.991 33.7637L42.4879 33.331Z" fill="#F5BFA9"/>
<path d="M42.488 33.331C42.488 33.331 42.2195 36.0214 41.8863 39.1495C38.7831 42.8247 34.6255 45.5997 30.2044 45.2565L30.473 37.215L40.9911 33.7637L42.488 33.331Z" fill="#BF847C"/>
<path d="M19.5172 23.0566C19.5172 23.0566 22.138 37.5532 16.8815 43.4065C16.8815 43.4065 22.5508 40.2188 22.6503 28.895L19.5172 23.0566Z" fill="#2F2962"/>
<path d="M25.0671 10.2409C25.0671 10.2409 20.3924 10.9073 18.9154 16.6661C17.687 21.4652 20.5316 26.1349 21.1135 26.6074C22.1479 27.4528 27.668 13.4286 25.0671 10.2409Z" fill="#2F2962"/>
<path d="M19.8254 25.752C19.0347 39.99 26.9668 41.2184 29.3639 41.7555C32.0891 42.3672 42.841 42.5462 45.0988 28.4673C47.3566 14.3884 40.986 9.51976 34.6304 8.83844C28.2698 8.15713 20.6112 11.514 19.8254 25.752Z" fill="#F5BFA9"/>
<path d="M31.562 27.3285C31.5769 27.2937 31.6316 27.3832 31.6217 27.4229C31.4426 28.3778 31.3979 29.5017 32.2184 29.9543C32.2433 29.9692 32.2333 30.0139 32.2035 30.009C31.1641 29.6957 31.2387 28.2087 31.562 27.3285Z" fill="#2F2962"/>
<path d="M32.5721 26.4631C34.1336 26.5875 33.7756 29.7006 32.3284 29.5863C30.9061 29.4719 31.2641 26.3587 32.5721 26.4631Z" fill="#2F2962"/>
<path d="M24.8683 26.677C24.8633 26.6422 24.7937 26.7217 24.7937 26.7615C24.8086 27.7313 24.6644 28.8453 23.7792 29.1586C23.7494 29.1685 23.7543 29.2183 23.7842 29.2133C24.8633 29.074 25.0424 27.592 24.8683 26.677Z" fill="#2F2962"/>
<path d="M24.0178 25.6476C22.4562 25.5034 22.2871 28.6364 23.7343 28.7657C25.1566 28.9 25.3257 25.7669 24.0178 25.6476Z" fill="#2F2962"/>
<path d="M29.4532 34.2609C29.2245 34.4947 29.0007 34.813 28.6476 34.8478C28.3094 34.8826 27.9116 34.7384 27.5983 34.6289C27.5684 34.619 27.5386 34.6488 27.5585 34.6787C27.8171 35.0467 28.3542 35.2655 28.8018 35.181C29.2394 35.0964 29.4483 34.7085 29.5477 34.3057C29.5627 34.246 29.4881 34.2261 29.4532 34.2609Z" fill="#BF847C"/>
<path d="M26.5194 31.0882C26.5194 31.0882 26.2707 32.5304 26.2459 33.2117C26.2459 33.2763 26.41 33.3111 26.6388 33.331C26.6487 33.336 26.6537 33.341 26.6636 33.331C27.8621 33.5598 29.0955 33.1868 29.8613 32.227C29.9111 32.1624 29.8265 32.0878 29.7619 32.1275C28.8369 32.7591 27.8373 32.8934 26.7631 32.8735C26.7233 32.6845 27.2753 30.4168 27.1659 30.4068C26.7929 30.3621 26.047 30.5908 25.5994 30.7052C26.037 27.6866 26.9521 24.7624 27.34 21.7487C27.3499 21.6393 27.1957 21.6044 27.1609 21.6989C25.9823 24.6977 25.4054 28.159 24.8783 31.2672C24.8136 31.6601 26.2409 31.1926 26.5194 31.0882Z" fill="#BF847C"/>
<path d="M23.5553 23.0715C23.8934 23.0466 24.1968 22.967 24.525 22.9073C24.898 22.8377 25.2014 22.8228 25.4848 22.5493C25.639 22.4001 25.639 22.0918 25.5097 21.9326C25.2113 21.5596 24.7339 21.5298 24.2813 21.5895C23.794 21.6591 23.4309 21.8381 23.0977 22.1962C22.7695 22.5493 23.1127 23.1063 23.5553 23.0715Z" fill="#2F2962"/>
<path d="M33.9142 24.0114C33.586 23.9318 33.2975 23.7976 32.9842 23.6832C32.6311 23.5539 32.3327 23.4892 32.099 23.171C31.9747 23.0019 32.0244 22.6935 32.1786 22.5593C32.5366 22.241 33.0141 22.2907 33.4467 22.43C33.9192 22.5792 34.2424 22.8179 34.511 23.2306C34.7745 23.6235 34.3419 24.1208 33.9142 24.0114Z" fill="#2F2962"/>
<path d="M44.07 29.3127C41.7078 29.447 40.4098 23.0566 40.4098 23.0566C40.4098 23.0566 24.655 20.3164 25.0678 10.2409C25.0678 10.2409 34.3178 3.57689 42.7422 10.9023C51.1667 18.2326 46.2284 29.1884 44.07 29.3127Z" fill="#2F2962"/>
<path d="M41.1106 23.1013C37.3112 22.8477 33.5714 22.1216 30.4234 19.8439C27.1262 17.4568 25.7636 14.1895 25.147 10.3055C25.142 10.2657 25.0873 10.2806 25.0823 10.3154C24.6447 13.911 27.0914 17.6557 29.7968 19.8041C32.9498 22.3056 37.1272 23.4146 41.1106 23.2654C41.22 23.2604 41.22 23.1063 41.1106 23.1013Z" fill="#2F2962"/>
<path d="M47.7942 31.8391C47.7892 31.859 47.7793 31.8739 47.7693 31.8988C47.1775 33.3062 46.3172 34.5494 45.4171 34.992C45.3773 35.0169 45.3375 35.0268 45.2977 35.0467C42.9554 36.0016 42.0304 33.8532 42.0304 33.8532L42.6968 30.0438L42.7018 30.0189C42.7018 30.0189 42.7813 29.8996 42.9305 29.7006C43.02 29.5713 43.1095 29.4371 43.209 29.3127C43.4427 29.0094 43.7511 28.6265 44.0992 28.2435C44.1042 28.2336 44.1091 28.2336 44.1141 28.2286C44.6015 27.6915 45.1734 27.1544 45.7602 26.8013C46.4316 26.3886 47.1179 26.2095 47.7296 26.5179C48.943 27.1445 48.6844 29.6758 47.7942 31.8391Z" fill="#F5BFA9"/>
<path d="M47.068 28.3778C47.1078 28.3728 47.1128 28.4275 47.0829 28.4424C45.4418 29.1685 44.6163 30.735 44.0543 32.3513C44.5317 31.7197 45.1931 31.3616 46.0336 31.9236C46.0783 31.9534 46.0386 32.0231 45.9888 32.0131C45.3025 31.8888 44.8152 32.0231 44.3726 32.58C44.0593 32.9779 43.8504 33.4702 43.6316 33.9228C43.557 34.072 43.2884 34.0024 43.3382 33.8283C43.3431 33.8134 43.3481 33.8034 43.3481 33.7885C43.2437 31.6799 44.8003 28.6612 47.068 28.3778Z" fill="#BF847C"/>
<path d="M40.4093 23.0566C40.4093 23.0566 43.0302 37.5532 37.7736 43.4065C37.7736 43.4065 43.4429 40.2188 43.5424 28.895L40.4093 23.0566Z" fill="#2F2962"/>
<path d="M48.0727 31.1826C47.5655 33.2962 46.4664 35.0119 45.1933 36.5238C43.3831 38.702 40.7921 39.7314 38.2409 40.5967C37.9873 40.6813 37.9127 40.2486 38.1762 40.1691C40.991 39.2988 43.5919 37.3692 45.1137 35.2109C45.1286 35.2109 45.1286 35.2109 45.1237 35.2059C45.2231 35.1412 45.3226 35.0666 45.4171 34.992C46.3172 34.5544 47.1776 33.3111 47.7694 31.8988C47.7793 31.8739 47.7893 31.859 47.7942 31.8391C47.8987 31.6253 47.9882 31.4015 48.0727 31.1826Z" fill="white"/>
<path d="M45.7554 26.8063C45.1188 27.1445 44.5021 27.6617 43.975 28.174C43.97 28.1789 43.965 28.1789 43.9601 28.1889C43.6418 28.4624 43.3086 28.8205 42.9953 29.2084C42.8908 29.3277 42.7914 29.457 42.6969 29.5813C42.5377 29.7703 42.4532 29.8847 42.4532 29.8847L42.4482 29.9046C41.7271 30.8743 41.1204 31.8391 40.8469 32.1276C40.7623 32.2221 40.6181 32.0977 40.6728 32.0032C41.4586 30.6555 42.9306 27.0948 44.9746 26.7964C45.258 26.7516 45.5216 26.7566 45.7554 26.8063Z" fill="white"/>
<path d="M41.8415 30.377C42.1598 29.6758 37.0922 32.1077 31.8107 31.0235C30.7316 30.7997 27.7179 29.5863 26.0419 29.5863C24.366 29.5863 22.4016 30.944 20.0841 31.1976C19.2934 31.2821 19.9747 38.1401 21.9988 41.1388C22.6652 42.1235 25.4999 44.1476 27.2355 44.3266C31.3035 44.7443 38.2808 41.84 39.34 40.4824C40.1954 39.3883 38.8427 37.031 41.8415 30.377Z" fill="white"/>
<path d="M20.4969 33.3708C21.949 32.7541 23.5504 32.2071 25.0721 31.9087C26.4298 31.6402 27.6582 32.1375 28.9462 32.595C32.3975 33.8234 35.8737 33.6841 39.3499 32.6945C39.3897 32.6845 39.4046 32.7541 39.3649 32.7691C36.5799 33.9875 33.5612 34.1665 30.6569 33.4902C29.0755 33.1222 27.494 32.2718 25.8529 32.3712C24.0626 32.4856 22.327 33.336 20.5566 33.6443C20.4074 33.6742 20.3477 33.4355 20.4969 33.3708Z" fill="#BEC1DF"/>
<path d="M23.0679 41.3029C24.1669 41.83 25.2461 42.6058 26.385 42.9788C27.7476 43.4214 29.3639 42.9739 30.7116 42.6556C33.2628 42.0588 35.7095 41.0095 38.2011 40.1491C38.221 40.1442 38.2309 40.179 38.211 40.1889C35.441 41.5416 32.5566 42.6854 29.5876 43.2126C28.593 43.3866 27.494 43.6452 26.4993 43.3468C25.3008 42.9888 24.1073 42.0936 23.043 41.3775C23.0082 41.3526 23.0331 41.288 23.0679 41.3029Z" fill="#BEC1DF"/>
<path d="M21.3671 35.6833C23.963 34.9174 26.38 35.1064 29.0107 35.4595C32.0095 35.8573 34.9983 35.7778 37.9872 35.2904C38.017 35.2854 38.027 35.3352 37.9971 35.3401C35.3514 35.8872 32.6709 36.0364 29.9904 35.7579C28.6924 35.6236 27.4094 35.3799 26.1064 35.2904C24.5001 35.181 22.9684 35.4595 21.4019 35.8474C21.3124 35.8723 21.2726 35.7081 21.3671 35.6833Z" fill="#BEC1DF"/>
<path d="M21.9736 38.3091C24.4453 39.6468 26.8374 40.2237 29.5676 39.9751C32.263 39.7264 34.854 38.7119 37.4301 37.8217C37.4649 37.8118 37.4748 37.8714 37.445 37.8814C32.2779 40.0646 27.0462 41.5366 21.904 38.4632C21.8046 38.4036 21.8742 38.2544 21.9736 38.3091Z" fill="#BEC1DF"/>
<path d="M59.9371 110.195C59.9371 110.195 63.6222 155.55 64.1493 156.182H80.1926V110.195H59.9371Z" fill="#434D91"/>
<path d="M102.02 110.195H73.2154C73.2154 110.195 80.1926 129.183 80.9485 130.446C81.7045 131.709 85.489 156.182 85.489 156.182H102.015C102.015 156.182 102.044 135.553 102.015 134.23C101.99 132.903 103.691 115.019 102.02 110.195Z" fill="#434D91"/>
<path d="M81.2569 43.7895C77.5917 43.9436 74.7074 45.8981 72.9668 47.2557C71.2262 48.6134 62.4536 56.8986 61.7275 59.3752C61.0015 61.8518 60.0615 113.408 61.0213 114.985C61.9812 116.561 72.1412 120.206 76.627 120.48C81.1127 120.753 100.577 117.123 102.114 115.701C103.651 114.278 107.296 64.587 106.491 61.5435C105.685 58.4949 93.262 48.678 90.7804 45.8135C89.6764 44.5354 82.8483 43.7248 81.2569 43.7895Z" fill="#BEC1DF"/>
<path d="M73.8816 54.5761C73.8468 55.2823 74.6574 58.5099 75.0105 58.9077C75.3635 59.3106 78.1634 59.5045 78.4966 59.2708C78.8248 59.037 80.4063 55.7597 80.466 55.1282C80.5256 54.5016 78.2281 51.7514 77.2583 51.5923C76.2836 51.4331 73.9015 54.1534 73.8816 54.5761Z" fill="#2F2962"/>
<path d="M75.0106 58.9077C75.0106 58.9077 70.4701 92.1877 70.2066 94.4455C69.943 96.7033 75.0703 110.161 75.9356 110.464C76.8009 110.767 81.6348 97.0316 81.9381 95.5346C82.2365 94.0377 78.81 60.3449 78.5316 59.1514C78.4619 58.8281 75.0553 58.5994 75.0106 58.9077Z" fill="#2F2962"/>
<path d="M69.2717 145.688C68.8042 147.046 56.7246 143.421 56.4809 141.77C56.2322 140.124 60.519 101.831 60.524 98.8268C60.5389 95.8231 60.0615 62.6574 61.4838 58.8331C62.2 56.8737 66.6111 52.4377 69.1474 49.9859C70.2266 48.9416 70.9725 48.2603 70.9725 48.2603C70.5548 49.8715 68.9883 71.5493 69.3861 86.2996C69.5104 91.0141 69.595 98.6627 69.6348 106.923C69.6397 106.998 69.6348 107.067 69.6397 107.127C69.7094 124.617 69.59 144.778 69.2717 145.688Z" fill="white"/>
<path d="M63.4083 70.3906C63.3088 68.8688 68.5704 62.6723 68.5704 62.6723C68.5704 62.6723 63.9006 63.4083 63.8957 62.3889C63.8957 61.5036 68.1477 52.1741 69.1522 49.9809C70.2314 48.9366 71.7432 47.7381 71.7432 47.7381C71.3255 49.3494 68.9931 71.5444 69.3909 86.2946C69.5153 91.0091 69.5998 98.6577 69.6396 106.918C69.4258 102.223 63.5078 71.8925 63.4083 70.3906Z" fill="white"/>
<path d="M63.5077 69.9431C65.0345 67.3968 68.8837 62.5331 68.8638 62.553C68.8489 62.553 64.4029 62.7271 64.0796 62.369C63.8559 62.1154 67.8443 53.1986 69.0279 50.7916C69.0577 50.7369 68.9831 50.6872 68.9433 50.7419C66.7651 53.9396 62.9855 62.5331 63.7564 62.7868C64.5421 63.0454 66.9044 63.0255 67.9835 63.0305C66.0937 64.97 63.08 69.7044 62.9706 70.0376C62.8761 70.336 64.7958 81.7542 65.8103 87.2197C66.9044 93.1178 67.8095 99.8514 69.187 105.69C69.2119 105.804 69.371 105.759 69.3561 105.65C68.6648 99.7867 64.6714 76.423 63.5077 69.9431Z" fill="#2F2962"/>
<path d="M108.475 141.894C98.8718 149.369 86.0114 147.459 85.5588 146.425C85.2903 145.808 84.5493 126.776 84.3006 108.017L84.2907 107.769C84.1315 95.0026 84.1862 82.3957 84.778 75.8412C86.2352 59.604 90.6413 45.8036 90.6413 45.8036C90.7458 45.8036 91.1983 46.1268 91.8846 46.6739C91.8846 46.6739 91.8846 46.6739 91.8896 46.6838C95.5647 49.6379 105.879 59.1415 105.77 60.9069C105.635 63.0056 105.128 90.6014 105.949 102.611C106.784 114.607 109.823 140.845 108.475 141.894Z" fill="white"/>
<path d="M103.288 118.466C103.238 118.297 102.84 118.272 102.761 118.282C98.2898 119.082 93.8886 120.047 89.3482 120.42C89.3034 120.425 89.2984 120.49 89.3482 120.49C93.8986 120.554 98.444 119.744 102.865 118.699C102.87 118.699 102.875 118.694 102.88 118.694C103.158 119.689 103.397 120.694 103.591 121.708C99.4635 122.822 95.4203 123.185 91.1733 123.503C91.1335 123.508 91.1335 123.558 91.1733 123.563C95.296 123.991 99.7171 123.235 103.656 122.031C104.029 124.041 104.233 126.075 104.223 128.123C104.218 129.237 104.456 131.828 103.671 132.734C102.721 133.833 100.488 134.345 99.1303 134.608C97.4145 134.937 95.6143 134.942 93.9035 134.594C92.8641 134.385 92.0585 134.216 91.4418 133.077C91.0738 132.4 89.8305 124.289 89.5471 121.096C89.5371 121.007 89.4029 120.997 89.4029 121.092C89.4526 124.792 90.0145 130.64 90.9594 133.191C91.8894 135.698 96.216 135.459 98.3445 135.18C100.075 134.957 102.363 134.598 103.82 133.589C104.77 132.928 104.72 132.226 104.77 131.053C104.964 126.622 104.471 122.554 103.288 118.466Z" fill="#2F2962"/>
<path d="M98.4989 78.0244C96.8131 77.8802 89.8308 78.278 88.0305 78.472C87.9261 78.4819 87.951 78.646 88.0504 78.651C89.8408 78.7057 97.6933 78.283 97.9817 78.4073C98.2254 78.5167 98.1558 79.9738 97.9917 80.0584C97.5789 80.2623 89.8457 80.3269 87.9957 80.3667C87.6824 80.3717 87.6625 80.864 87.9808 80.8591C91.457 80.7795 94.9283 80.6402 98.3945 80.4662C98.5288 80.4612 98.6382 80.3717 98.6432 80.2325C98.668 79.5611 98.5785 78.0294 98.4989 78.0244Z" fill="#2F2962"/>
<path d="M89.4378 61.1606C89.3582 61.3446 94.3711 66.1983 94.6496 66.9045C94.9232 67.6206 87.9061 86.5334 86.4191 92.2574C84.9371 97.9765 84.3006 108.017 84.3006 108.017L84.2906 107.769C84.1315 95.0026 84.1862 82.3957 84.778 75.8412C86.2351 59.604 90.1987 45.2615 90.1987 45.2615C90.3031 45.2615 91.1983 46.1219 91.8846 46.6739C91.8846 46.6739 91.8846 46.6739 91.8895 46.6838C91.989 47.0767 95.3409 59.5045 95.3807 59.9073C95.4254 60.3151 89.5124 60.9716 89.4378 61.1606Z" fill="white"/>
<path d="M92.0585 47.0568C92.0287 46.9375 91.9441 46.9673 91.969 47.0867C92.7995 51.4332 93.7742 55.6802 95.112 59.8974C93.1178 60.2356 89.3432 61.0064 89.2735 61.091C89.1442 61.2501 90.7903 63.2294 91.6358 64.1047C92.5757 65.0695 93.4709 66.1436 94.5351 66.9741C91.7651 73.2055 85.9167 92.3669 85.3498 95.5695C84.758 98.9065 84.4894 102.283 84.2706 105.665C84.2656 105.71 84.3303 105.71 84.3353 105.665C84.7729 102.109 85.1608 98.5484 85.9068 95.0424C86.5781 91.8845 92.7846 73.3248 94.9827 67.0686C95.0424 66.8996 90.3875 62.0508 89.5471 61.2302C91.4468 60.9368 95.5993 60.2903 95.5446 60.1113C94.3163 55.7847 93.1476 51.4232 92.0585 47.0568Z" fill="#2F2962"/>
<path d="M97.3548 95.7734C97.32 96.6337 97.1808 97.2305 97.0365 97.3051C96.5939 97.5438 94.7191 98.4489 92.1778 99.4734C91.7253 99.6574 91.2478 99.8464 90.7505 100.035C89.363 100.562 84.3104 103.153 78.636 105.879C71.057 109.519 62.3889 113.413 59.8775 112.985C55.5061 112.239 49.3792 106.978 48.9267 103.959C48.4791 100.94 57.6545 65.0595 58.8232 62.6226C59.9819 60.1858 61.3047 58.112 62.5679 56.8787L60.6682 96.3602C60.7279 96.3204 60.8671 96.2657 61.071 96.1911C62.4883 95.6888 67.178 94.3909 72.5639 92.9785C81.6249 90.6063 92.6453 87.9059 93.3614 88.1297C93.62 88.2142 93.8687 88.3137 94.0974 88.4231C94.0974 88.4231 94.0974 88.4231 94.1024 88.4231C96.9072 89.8206 97.4543 93.6101 97.3548 95.7734Z" fill="white"/>
<path d="M92.1776 99.4734C91.7251 99.6574 91.2476 99.8464 90.7503 100.035C89.3628 100.563 84.3101 103.154 78.6358 105.879C77.3528 105.128 76.0747 104.367 74.7916 103.621C71.6934 101.821 68.5106 100.115 65.4869 98.2103C65.2482 98.0561 65.0145 97.897 64.7857 97.713C64.5967 97.7229 64.4077 97.7279 64.2536 97.7378C63.2639 97.7726 61.1852 97.698 61.0609 96.4647C61.0559 96.4349 61.041 96.41 61.041 96.3802C61.041 96.3503 61.0509 96.3404 61.0559 96.3155C61.0559 96.2757 61.0608 96.231 61.0658 96.1812C62.4832 95.6789 67.1728 94.381 72.5587 92.9686C77.4323 92.7747 82.1866 93.6251 86.6724 95.9077C88.3135 96.7382 90.437 97.9517 92.1776 99.4734Z" fill="#BEC1DF"/>
<path d="M97.6234 95.7932C97.5985 96.1762 97.5488 96.574 97.4891 96.9967C97.5189 97.0912 97.3747 97.2305 97.2703 97.2902C91.9938 100.344 75.9704 107.525 72.0069 109.275C69.6794 110.315 61.7324 114.119 59.2807 112.926C59.231 112.896 59.221 112.846 59.2807 112.856C59.3006 112.856 59.3205 112.866 59.3453 112.866C61.5832 113.214 70.137 109.663 78.5415 105.814C79.9489 105.178 81.3563 104.526 82.7239 103.885C82.7687 103.86 82.8184 103.84 82.8582 103.82C85.7277 102.467 88.443 101.154 90.7207 100.045C90.7356 100.04 90.7406 100.04 90.7505 100.03C91.213 99.8066 91.6556 99.5877 92.0734 99.3838C95.1368 97.882 97.1211 96.8774 97.1211 96.8774C97.2553 94.9677 97.2255 89.8902 93.2122 88.3037C87.155 89.915 80.312 91.3672 74.205 92.9536C73.9911 93.0033 73.7823 93.058 73.5684 93.1177C70.3707 93.9631 67.1631 94.8135 63.9654 95.6838C62.926 95.9623 62.0059 96.2757 61.1456 96.768C60.6035 97.0664 60.0963 97.4393 59.599 97.9068C58.475 98.9661 57.3959 100.06 56.2272 101.07C56.1576 101.129 56.073 101.035 56.1327 100.97C57.4058 99.4236 58.7386 97.6681 60.4245 96.5094C60.2504 91.7054 60.1559 86.8814 60.0416 82.0625C59.7979 81.7343 59.6984 81.2966 59.599 80.8988C59.4547 80.3766 59.3702 79.8345 59.3056 79.2975C59.2956 79.198 59.4299 79.1632 59.4547 79.2577C59.5741 79.75 59.7283 80.2374 59.8924 80.7297C59.9322 80.8341 59.9769 80.9435 60.0217 81.0579C59.967 79.0538 59.9222 77.0496 59.8576 75.0405C59.8576 75.0255 59.8874 75.0206 59.8924 75.0405C60.6881 80.5059 60.8572 86.1454 60.887 91.7451C60.8969 93.2371 60.8969 94.729 60.892 96.216C61.3545 95.9424 61.8369 95.7037 62.3541 95.5396C65.5518 94.5152 68.8688 93.7692 72.1063 92.9238C75.9008 91.9242 79.9539 90.9793 83.997 90.0692C84.0816 90.0493 84.1711 90.0244 84.2706 90.0095C86.8168 89.4426 89.3481 88.8707 91.7949 88.3137C92.2723 88.2093 92.7447 88.0949 93.2221 87.9904C93.2719 87.9904 93.7095 88.1048 94.2864 88.4231C95.6639 89.1641 97.9615 91.1484 97.6234 95.7932Z" fill="#2F2962"/>
<path d="M70.9973 90.9694C70.0325 91.6408 68.9086 92.9189 68.0333 94.2119C67.2923 95.291 66.7154 96.3801 66.5264 97.1112C66.0838 97.1609 65.5418 97.0416 65.2832 96.9968C63.8211 96.7432 63.4332 95.5198 63.4332 95.5198L61.0511 96.2011C60.0465 95.7933 61.3047 94.2666 61.3047 94.2666C61.2748 93.6499 62.3988 92.889 62.3988 92.889C62.538 92.2624 63.9802 91.6955 63.9802 91.6955C63.9802 91.6955 64.4328 91.0987 66.0938 90.7854C67.1431 90.5765 69.4357 90.7854 70.9973 90.9694Z" fill="#FADAD4"/>
<path d="M113.488 102.363C113.493 104.277 107.326 113.587 103.233 113.06C96.5193 112.21 68.098 98.3047 66.7354 97.9914C66.4519 97.9218 66.4022 97.5985 66.5215 97.1112C66.7105 96.3801 67.2924 95.291 68.0284 94.2118C68.8987 92.9188 70.0226 91.6457 70.9924 90.9694C71.2858 90.7655 71.5543 90.6312 71.8129 90.5516C73.6281 89.9946 90.5616 92.9586 97.6383 94.3163C99.4783 94.6743 100.647 94.918 100.722 94.9628C100.821 94.9677 100.945 92.4613 101.07 88.7116C101.453 77.716 101.91 55.889 101.91 55.889C104.034 58.0623 108.326 62.2646 109.116 63.7466C109.917 65.2285 113.478 100.448 113.488 102.363Z" fill="white"/>
<path d="M105.501 97.3698C104.158 96.4696 102.895 95.6093 101.398 95.0224C102.373 94.7788 103.875 95.2761 104.66 95.3556C104.814 95.3706 104.829 95.1517 104.7 95.102C103.875 94.7837 102.895 94.6097 102.01 94.5997C101.706 94.5948 101.423 94.6445 101.179 94.7688C101.632 88.5773 101.622 82.2167 100.945 76.05C100.935 75.9406 100.756 75.9655 100.756 76.0699C100.751 77.721 100.756 79.3721 100.761 81.0231C100.592 80.3319 100.393 79.6456 100.219 78.9941C100.209 78.9543 100.15 78.9692 100.155 79.009C100.448 80.496 100.448 82.0575 100.771 83.5296C100.786 87.2793 100.806 91.029 100.776 94.7788C97.2106 93.4808 76.6219 89.9051 71.8776 90.4472C71.5046 90.4919 71.1714 90.7356 71.0222 90.845C70.9078 90.9296 70.9227 91.044 70.9874 91.0191C71.2062 90.9196 71.5991 90.666 72.0566 90.661C77.0993 90.6312 97.2653 94.0875 100.826 95.4004C100.861 95.4352 100.911 95.4501 100.955 95.4501C102.487 96.022 103.999 96.6984 105.481 97.5189C105.69 97.6333 105.695 97.4991 105.501 97.3698Z" fill="#2F2962"/>
<path d="M106.65 111.752C105.844 112.329 104.894 112.752 104.004 112.901C102.596 113.135 98.7622 111.638 96.4248 110.767C92.8442 109.44 89.3829 107.818 85.9266 106.192C82.8035 104.72 79.6754 103.263 76.5125 101.88C74.8614 101.159 73.2004 100.453 71.5344 99.7618C70.5149 99.3391 67.2675 98.1903 66.6757 97.7825C66.4917 97.6582 66.611 97.2653 66.5961 97.0614C66.5911 96.9918 66.4817 96.957 66.4618 97.0415C66.3425 97.5538 66.3673 97.4046 66.3126 97.9317C66.3077 97.9964 66.3574 98.0461 66.4121 98.071C74.1801 101.318 81.769 104.899 89.4127 108.415C92.7248 109.937 96.0916 111.379 99.5778 112.453C100.935 112.871 102.596 113.512 104.088 113.348C105.113 113.234 106.073 112.762 106.774 111.851C106.838 111.767 106.734 111.697 106.65 111.752Z" fill="#2F2962"/>
<path d="M106.679 94.0676C106.679 94.0676 106.993 94.7838 106.759 95.107C106.525 95.4303 105.719 95.9176 105.719 95.9176C105.719 95.9176 101.522 95.1567 100.726 94.9628C100.652 94.918 99.4832 94.6743 97.6431 94.3163C97.4542 90.7157 95.5097 89.0846 94.3012 88.4232C95.1964 88.4381 98.8516 88.5077 101.075 88.7066C101.776 88.7713 102.333 88.8409 102.611 88.9354C103.914 89.3382 107.112 92.9089 107.062 93.3565C107.012 93.8041 106.679 94.0676 106.679 94.0676Z" fill="#FADAD4"/>
<path d="M90.8602 47.0866C90.1093 42.7203 82.9878 42.5462 79.6508 42.7551C75.4038 43.0236 71.8978 44.1326 70.8584 48.5438C69.8289 52.9002 69.9582 57.6794 70.2367 62.1303C70.2865 62.9608 68.9984 63.0653 68.9487 62.2298C68.6304 57.1025 67.5314 47.4845 71.9027 43.7696C76.2293 40.0945 90.8801 39.5822 92.1532 46.9822C92.2925 47.8077 90.9995 47.9022 90.8602 47.0866Z" fill="#2F2962"/>
<path d="M66.8202 64.8506C66.9495 66.4868 68.3767 67.7101 70.0129 67.5808C71.649 67.4515 72.8724 66.0243 72.7431 64.3881C72.6138 62.752 71.1866 61.5286 69.5504 61.6579C67.9142 61.7872 66.6908 63.2145 66.8202 64.8506Z" fill="#768FF6"/>
<path d="M67.9986 64.7611C68.0732 65.7458 68.9386 66.4818 69.9232 66.4072C70.9079 66.3326 71.6439 65.4673 71.5693 64.4826C71.4947 63.498 70.6294 62.7619 69.6447 62.8365C68.6551 62.9111 67.9191 63.7764 67.9986 64.7611Z" fill="#E4EFF8"/>
<path d="M89.7661 61.6082C89.5175 74.4488 90.7259 77.2785 92.0687 78.4223C93.481 79.6258 95.3758 80.0037 95.4554 80.0186L95.6244 79.1334L95.5399 79.576L95.6244 79.1334C95.6095 79.1284 93.8789 78.7803 92.6505 77.736C91.6808 76.9104 90.4226 74.3393 90.6662 61.6281L89.7661 61.6082Z" fill="#BEC1DF"/>
<path d="M94.3014 78.8003L94.0876 79.586C94.008 79.8794 94.1821 80.1878 94.4755 80.2673L96.42 80.7995C96.7134 80.879 97.0217 80.705 97.1013 80.4116L97.3151 79.6258C97.3947 79.3324 97.2206 79.0241 96.9272 78.9445L94.9827 78.4124C94.6843 78.3328 94.381 78.5069 94.3014 78.8003Z" fill="#768FF6"/>
<path d="M97.7129 59.9919C102.318 68.5059 104.108 73.3447 103.342 75.2196C102.731 76.7215 101.353 77.8155 101.343 77.8255L101.9 78.5317C101.965 78.4819 103.477 77.2735 104.178 75.5578C105.088 73.3248 103.447 68.6899 98.5086 59.5642L97.7129 59.9919Z" fill="#BEC1DF"/>
<path d="M102.363 76.9254L102.915 77.5221C103.119 77.7459 103.104 78.099 102.88 78.3029L101.398 79.6656C101.174 79.8695 100.821 79.8545 100.617 79.6307L100.065 79.034C99.8612 78.8102 99.8711 78.4571 100.1 78.2532L101.582 76.8906C101.806 76.6867 102.159 76.7016 102.363 76.9254Z" fill="#768FF6"/>
<path d="M98.7178 59.1117C98.1608 57.9131 96.6788 54.9691 95.7091 53.5468C94.9134 52.3781 93.4314 51.8211 93.4314 51.8211C93.2524 51.846 92.9589 50.2943 92.7401 49.0212C92.5511 47.8973 92.3572 46.5844 92.0041 46.296C91.6659 46.0125 90.9896 46.1517 90.7857 46.5247C90.5619 46.9226 90.8603 48.2156 91.0891 49.3345C91.3526 50.5977 91.6361 52.1493 91.462 52.1891C91.462 52.1891 90.3779 53.2882 90.0745 54.6309C89.7314 56.1278 89.3982 59.982 89.428 61.076C89.4629 62.4387 89.9254 62.4934 90.3282 62.5332C90.8951 62.5829 91.1438 62.1453 91.2084 60.6135C91.3128 58.1867 91.2084 54.1684 92.7899 53.8004V53.7954C94.3962 53.5716 96.0124 57.4606 97.0618 59.5941C97.7182 60.9269 98.0514 60.9915 98.5636 60.7379C98.9167 60.5588 99.2698 60.3002 98.7178 59.1117Z" fill="#768FF6"/>
<path d="M85.0663 39.7663C86.2698 40.2785 90.4024 45.7639 90.2483 46.5546C90.0941 47.3453 90.6113 57.3313 81.4807 61.2203L76.9999 52.7959L72.5341 59.7035C72.5341 59.7035 69.953 54.1983 70.0376 52.8207C70.1221 51.4481 71.1913 44.6051 76.5126 41.1986C80.5109 38.6424 82.5598 38.7021 85.0663 39.7663Z" fill="#BEC1DF"/>
<path d="M90.1141 46.4551C89.6466 51.9106 87.2794 59.0271 81.5952 60.9069C80.0286 58.2264 78.4422 55.6006 77.1044 52.7958C77.0547 52.6914 76.9453 52.7063 76.8757 52.761C76.8359 52.7709 73.678 57.3362 72.4695 59.5692C71.7086 58.0474 71.2859 56.3715 70.7886 54.7552C70.0973 52.5123 70.3957 50.7717 71.092 48.5686C71.1118 48.5139 71.0223 48.4742 70.9975 48.5289C70.1868 50.3291 69.6498 52.1194 70.1769 54.0689C70.6991 55.9985 71.2909 58.1071 72.2507 59.8676C72.2855 59.9272 72.3352 59.9422 72.3899 59.9372C72.4297 59.9521 72.4795 59.9471 72.5093 59.9073C74.0758 57.7639 75.3539 55.4266 76.9254 53.2782C78.2731 56.0731 79.7949 58.7536 81.3167 61.2401C81.3913 61.3595 81.6499 61.2948 81.6747 61.2899C87.5828 59.4249 90.3379 52.194 90.1837 46.4551C90.1837 46.4103 90.1191 46.4103 90.1141 46.4551Z" fill="#2F2962"/>
<path d="M72.0221 33.4057L72.6935 46.3208V46.3407L72.788 48.1559C72.788 48.1559 73.4594 51.8957 77.3682 52.587C81.2771 53.2832 87.1901 48.0565 87.6576 47.0817C87.8963 46.5794 88.0903 41.9495 88.2295 37.5483C88.3588 33.346 88.4384 29.3476 88.4384 29.3476L86.6083 29.8002L72.0221 33.4057Z" fill="#FADAD4"/>
<path d="M72.0221 33.4057L72.6935 46.3208V46.3407C76.9803 45.6992 81.0732 43.8989 84.5245 41.1836C85.9071 40.0945 87.1404 38.8761 88.2295 37.5483C88.3588 33.346 88.4384 29.3476 88.4384 29.3476L86.6083 29.8002L72.0221 33.4057Z" fill="#DEA89E"/>
<path d="M90.8651 11.3052C93.5655 17.4022 91.1834 32.6597 86.5485 37.8417C83.3756 41.3875 76.463 42.4915 71.3109 40.4028C68.9685 39.453 66.9942 37.8417 65.9001 35.5043C62.3941 28.0148 65.5769 10.0569 69.3316 7.23218C75.9558 2.23918 87.563 3.85046 90.8651 11.3052Z" fill="#FADAD4"/>
<path d="M78.7654 25.0509C78.7754 25.016 78.835 25.1006 78.8301 25.1404C78.7256 26.0902 78.7605 27.1992 79.5959 27.5822C79.6208 27.5921 79.6158 27.6418 79.586 27.6369C78.5466 27.4031 78.5118 25.9361 78.7654 25.0509Z" fill="#2F2962"/>
<path d="M79.6956 24.1258C81.2373 24.1308 81.113 27.2141 79.6807 27.2092C78.2783 27.2042 78.4026 24.1209 79.6956 24.1258Z" fill="#2F2962"/>
<path d="M71.3009 24.5088C71.2959 24.4739 71.2263 24.5485 71.2263 24.5883C71.2164 25.5432 71.0473 26.6373 70.167 26.9207C70.1422 26.9307 70.1422 26.9754 70.172 26.9754C71.2313 26.871 71.4451 25.4139 71.3009 24.5088Z" fill="#2F2962"/>
<path d="M70.4853 23.4744C68.9536 23.2953 68.705 26.3687 70.1273 26.5378C71.5247 26.7019 71.7734 23.6285 70.4853 23.4744Z" fill="#2F2962"/>
<path d="M77.4378 33.6643C77.1991 33.8781 76.9604 34.1765 76.6123 34.1914C76.2791 34.2063 75.8962 34.0372 75.5978 33.9079C75.5679 33.893 75.5381 33.9278 75.553 33.9577C75.7867 34.3356 76.299 34.5843 76.7466 34.5246C77.1842 34.4649 77.413 34.1019 77.5323 33.709C77.5423 33.6593 77.4726 33.6344 77.4378 33.6643Z" fill="#DEA89E"/>
<path d="M80.9684 22.7632C80.5507 22.6388 80.1876 22.4598 79.7898 22.2957C79.3422 22.1117 78.9642 22.0073 78.6808 21.5895C78.5316 21.3657 78.6111 20.9728 78.82 20.8038C79.2974 20.4109 79.9042 20.5054 80.4562 20.7043C81.0529 20.9231 81.4558 21.2414 81.784 21.7884C82.0973 22.3156 81.5204 22.9273 80.9684 22.7632Z" fill="#2F2962"/>
<path d="M69.3562 21.873C69.7889 21.8233 70.1768 21.699 70.5945 21.6045C71.067 21.4951 71.4598 21.4603 71.808 21.0922C71.9969 20.8933 71.9771 20.4955 71.803 20.2965C71.3952 19.834 70.7835 19.8191 70.2066 19.9285C69.58 20.0429 69.1275 20.2916 68.7197 20.7789C68.3218 21.2414 68.7893 21.9426 69.3562 21.873Z" fill="#2F2962"/>
<path d="M74.0758 31.4761C74.0758 31.4761 74.8516 33.4454 76.3734 33.0973C77.5222 32.8337 76.9652 30.5163 76.9652 30.5163C76.9652 30.5163 75.4732 31.6153 74.0758 31.4761Z" fill="white"/>
<path d="M77.0497 30.6008C76.4828 31.4064 75.6772 31.8292 74.8218 31.9585C74.4388 32.0181 74.041 32.0181 73.6481 31.9634C73.5735 31.9585 73.494 31.9485 73.4243 31.9286C73.3547 31.9187 73.2901 31.9087 73.2155 31.8888C73.1061 31.8689 73.0464 31.7744 73.0315 31.665V31.6601C73.0315 31.6253 73.0364 31.5954 73.0464 31.5606C73.0464 31.5606 73.0464 31.5606 73.0464 31.5556L73.0514 31.4711C73.0613 30.7351 73.1807 29.6211 73.1807 29.6211C72.9071 29.7454 71.5097 30.3024 71.5495 29.9195C71.8678 26.7466 72.2258 23.2207 73.2155 20.1274C73.2453 20.023 73.4045 20.0528 73.3895 20.1573C73.2006 23.2207 72.4794 26.2245 72.2407 29.2978C72.6833 29.1486 73.4094 28.8702 73.7973 28.895C73.9018 28.9298 73.5337 31.0484 73.5536 31.3766C73.5536 31.3766 73.5536 31.3915 73.5586 31.4114C74.787 31.6203 75.7368 31.2871 76.9702 30.5063C77.0398 30.4616 77.1144 30.5262 77.0497 30.6008Z" fill="#DEA89E"/>
<path d="M68.6552 11.4892C65.4028 16.6562 64.9254 25.0111 64.259 22.6389C62.0509 14.8411 65.9598 10.3255 65.9598 10.3255C65.9598 10.3255 69.0481 10.8675 68.6552 11.4892Z" fill="#2F2962"/>
<path d="M89.8753 27.612C89.8753 27.612 83.9722 26.4383 85.6979 13.8862C85.6979 13.8862 81.2072 16.1042 74.8466 15.3085C68.4014 14.5028 64.9202 11.7676 62.8813 7.33659C62.2149 5.88941 65.711 7.92839 67.2427 7.27193C69.9779 6.09828 72.6485 2.53256 80.0087 2.69668C87.3689 2.85581 89.3183 7.81401 89.3183 7.81401C89.3183 7.81401 93.2769 9.03242 94.8584 12.4738C96.4398 15.9102 93.6698 27.607 89.8753 27.612Z" fill="#2F2962"/>
<path d="M87.8017 27.1843C87.8017 27.1843 90.8104 22.1117 93.0831 23.1511C95.3608 24.1905 93.3517 31.3617 90.8552 32.5105C88.3587 33.6593 87.2546 31.3716 87.2546 31.3716L87.8017 27.1843Z" fill="#FADAD4"/>
<path d="M92.4615 25.1951C92.5012 25.1901 92.5162 25.2448 92.4813 25.2647C90.7358 26.13 89.9152 27.8706 89.3831 29.651C89.8705 28.9448 90.5717 28.527 91.5116 29.094C91.5613 29.1238 91.5215 29.1984 91.4718 29.1934C90.7209 29.089 90.1987 29.2581 89.7461 29.8847C89.4229 30.3273 89.224 30.8743 89.0052 31.3766C88.9306 31.5457 88.6371 31.4811 88.6819 31.2871C88.6869 31.2722 88.6918 31.2573 88.6918 31.2424C88.473 28.9547 90.0147 25.6078 92.4615 25.1951Z" fill="#DEA89E"/>
<path d="M84.3056 38.9159C86.9016 37.7572 89.5174 36.4194 91.2083 33.9577C92.3919 32.237 93.3815 30.3274 93.7048 28.0547C93.481 28.8802 93.1478 29.7157 92.7102 30.4865C92.2477 31.2922 91.6758 32.0232 90.9994 32.5752C91.0044 32.5802 91.0044 32.5802 90.9944 32.5802C89.6119 34.9971 87.0657 37.2847 84.1912 38.4733C83.9276 38.5827 84.047 39.0303 84.3056 38.9159Z" fill="white"/>
<path d="M87.031 28.9299C87.4935 28.353 88.9307 25.3741 90.2237 24.2602C90.2287 24.2552 90.2387 24.2452 90.2387 24.2452C90.4376 24.0463 90.6415 23.8524 90.8553 23.6833C91.2333 23.3799 91.6361 23.1412 92.0489 23.0467C91.7256 22.9075 91.3477 22.8677 90.915 22.9473C88.9258 23.3252 87.588 27.2938 86.8619 28.7956C86.8023 28.9001 86.9514 29.0343 87.031 28.9299Z" fill="white"/>
<path d="M87.4636 28.2535C87.7968 27.5125 82.4507 30.0836 76.8808 28.9349C75.742 28.7011 72.5642 27.4181 70.7937 27.4181C69.0233 27.4181 66.9545 28.8503 64.5077 29.1139C63.6722 29.2034 64.3933 36.4393 66.5318 39.6072C67.233 40.6465 70.2268 42.78 72.0569 42.969C76.3537 43.4116 83.7089 40.3432 84.8328 38.9109C85.728 37.7621 84.2957 35.2756 87.4636 28.2535Z" fill="white"/>
<path d="M65.0896 30.7003C66.6213 30.0489 68.3121 29.472 69.9184 29.1537C71.3507 28.8702 72.6487 29.3974 74.0063 29.8798C77.6467 31.1728 81.3168 31.0286 84.987 29.9842C85.0317 29.9743 85.0466 30.0439 85.0069 30.0638C82.0727 31.3518 78.88 31.5358 75.8215 30.8247C74.1506 30.4368 72.4796 29.5366 70.7539 29.646C68.8691 29.7654 67.0291 30.6606 65.1642 30.9888C65 31.0186 64.9354 30.77 65.0896 30.7003Z" fill="#BEC1DF"/>
<path d="M67.8047 39.0701C68.9634 39.627 70.1023 40.4476 71.3057 40.8405C72.743 41.308 74.4487 40.8355 75.8711 40.5023C78.5665 39.8707 81.1475 38.7667 83.7783 37.8566C83.7982 37.8467 83.8081 37.8865 83.7882 37.8964C80.869 39.3237 77.8205 40.5322 74.6875 41.0891C73.6381 41.2732 72.4744 41.5417 71.4301 41.2284C70.1669 40.8504 68.9037 39.9055 67.7798 39.1496C67.745 39.1248 67.7699 39.0502 67.8047 39.0701Z" fill="#BEC1DF"/>
<path d="M66.0095 33.1371C68.7497 32.3315 71.2959 32.5304 74.0759 32.9034C77.2388 33.3261 80.3967 33.2366 83.5497 32.7244C83.5795 32.7194 83.5944 32.7741 83.5646 32.7791C80.7747 33.356 77.9449 33.5101 75.1152 33.2167C73.7476 33.0775 72.39 32.8189 71.0174 32.7244C69.3216 32.605 67.7053 32.9034 66.0493 33.3112C65.9548 33.3361 65.91 33.167 66.0095 33.1371Z" fill="#BEC1DF"/>
<path d="M66.6559 35.9072C69.2668 37.3195 71.7882 37.9312 74.6676 37.6627C77.5122 37.3991 80.2474 36.3299 82.9677 35.39C83.0025 35.3751 83.0174 35.4397 82.9826 35.4546C77.5321 37.7572 72.007 39.3088 66.5863 36.0713C66.4769 36.0116 66.5465 35.8525 66.6559 35.9072Z" fill="#BEC1DF"/>
<path d="M192.429 113.975L189.709 133.3L189.56 134.355L186.521 155.943H163.779L164.102 138.88L164.122 137.791L164.575 113.975H192.429Z" fill="#768FF6"/>
<path d="M186.521 113.975C186.521 113.975 186.278 118.918 185.86 122.912C185.835 123.16 185.805 123.409 185.78 123.648C185.601 125.214 185.387 126.567 185.149 127.293C184.587 129.029 179.26 134.007 175.451 137.463C175.043 137.836 174.65 138.184 174.282 138.517C172.875 139.78 171.831 140.695 171.602 140.939C171.433 141.118 171.129 141.819 170.756 142.819C170.751 142.844 170.742 142.864 170.732 142.884C169.19 146.976 166.49 155.938 166.49 155.938H139.605C139.605 155.938 138.521 137.682 138.864 132.057C138.929 130.943 139.132 129.561 139.421 128.059C139.421 128.034 139.426 128.004 139.436 127.979C140.57 121.912 142.977 113.975 142.977 113.975H186.521Z" fill="#768FF6"/>
<path d="M192.429 113.975L189.709 133.3L189.56 134.355C184.582 136.19 179.479 137.751 174.288 138.517C170.926 139.014 167.529 139.184 164.103 138.88C163.078 138.791 162.059 138.656 161.034 138.482C152.883 137.06 145.826 133.027 139.421 128.064C139.421 128.039 139.426 128.009 139.436 127.984C140.57 121.917 142.977 113.98 142.977 113.98H192.429V113.975Z" fill="#6181E2"/>
<path d="M183.075 131.615C181.28 133.166 179.539 134.768 177.664 136.23C175.894 137.607 171.851 140.079 171.791 140.223C169.667 145.335 168.056 150.731 166.236 155.953C166.191 156.077 166.4 156.162 166.46 156.042C168.941 151.219 171.219 145.858 172.229 140.541C174.203 139.741 176.013 138.313 177.679 137.055C179.723 135.504 181.672 133.783 183.274 131.804C183.378 131.669 183.209 131.5 183.075 131.615Z" fill="#2F2962"/>
<path d="M201.624 75.8461C201.54 76.1892 200.898 76.1196 199.889 75.9306C198.566 75.687 196.597 75.2245 194.428 75.1648C194.423 75.1598 194.423 75.1598 194.423 75.1648C193.071 75.13 191.648 75.2493 190.241 75.677C190.196 75.6919 190.156 75.6969 190.112 75.7019H190.107C186.422 76.0898 180.782 48.5089 180.782 48.5089C183.289 49.6975 187.7 51.2541 189.744 53.7108C191.788 56.1725 202.281 73.1706 201.624 75.8461Z" fill="#768FF6"/>
<path d="M163.675 39.4131L157.856 39.985C157.856 39.985 159.124 45.8881 156.767 47.8525C154.415 49.8218 147.119 55.3122 145.971 57.1124C144.822 58.9177 149.004 95.4402 147.035 101.522C145.065 107.604 142.937 113.453 144.414 115.775C145.891 118.098 160.313 123.175 168.673 123.175C177.033 123.175 187.526 119.077 189.818 113.01C192.111 106.943 193.752 81.5354 191.952 71.3753C190.147 61.2103 185.149 50.5579 182.528 49.7373C179.907 48.9167 173.432 49.0361 172.651 41.4571C171.955 34.7384 163.675 39.4131 163.675 39.4131Z" fill="#FADAD4"/>
<path d="M194.249 90.5665C194.229 91.5512 194.21 92.521 194.185 93.4857C193.668 114.437 192.131 127.89 191.3 129.039C190.43 130.237 166.494 136.25 158.627 134.827C150.76 133.41 139.729 123.25 138.904 121.823C138.202 120.609 143.742 110.827 145.314 101.05C145.587 99.364 145.742 97.7775 145.727 96.3602C145.702 94.0825 145.597 90.84 145.458 87.1848C145.001 75.4284 144.195 59.4498 144.528 57.923C144.961 55.9238 153.291 49.2897 153.709 49.3643C154.464 49.5135 170.647 59.967 171.517 59.5293C172.398 59.0917 176.659 47.3452 177.037 47.2855C177.415 47.2308 183.318 49.1455 184.577 50.6772C185.541 51.8459 190.957 61.5484 193.245 76.045C193.946 80.4711 194.354 85.3497 194.249 90.5665Z" fill="#768FF6"/>
<path d="M178.833 50.3092C177.823 53.4622 173.029 62.5381 172.383 63.0105C172.268 63.0951 162.367 60.325 151.928 51.6221C151.918 51.6171 151.908 51.632 151.918 51.637C157.642 57.1323 164.55 61.0611 172.442 63.5526C172.507 63.5725 177.968 55.153 178.952 50.344C178.967 50.2644 178.858 50.2296 178.833 50.3092Z" fill="#2F2962"/>
<path d="M194.249 90.5666C194.229 91.5512 194.21 92.521 194.185 93.4858C194.016 93.5007 193.842 93.5106 193.677 93.5256C190.574 93.7891 187.466 94.003 184.358 94.182C182.776 94.2666 181.185 94.3014 179.604 94.4257C177.893 94.555 176.585 95.0871 175.138 95.9475C172.567 97.4543 169.966 98.9065 167.3 100.249C162.794 102.512 157.98 104.571 152.828 103.939C150.073 103.596 147.517 102.601 145.309 101.055C145.582 99.369 145.737 97.7825 145.722 96.3652C145.697 94.0875 145.592 90.8451 145.453 87.1898C149.775 83.818 155.499 82.4107 160.711 81.1922C166.475 79.8495 172.308 78.7256 178.141 77.726C183.055 76.8855 188.207 76.0152 193.24 76.055C193.946 80.4711 194.354 85.3498 194.249 90.5666Z" fill="#6181E2"/>
<path d="M191.519 68.7992C191.42 67.3172 191.067 65.8949 190.699 64.4577C190.684 64.403 190.599 64.4229 190.609 64.4776C190.808 65.4473 190.918 66.427 191.032 67.4117C190.47 65.8949 189.858 64.393 189.197 62.921C189.157 62.8365 189.033 62.9061 189.068 62.9906C190.863 67.5211 192.027 72.2157 193.19 76.9302C193.235 77.1093 193.484 77.0396 193.464 76.8656C193.111 74.1155 192.415 71.425 191.519 68.7992Z" fill="#2F2962"/>
<path d="M199.277 89.1492C196.975 90.3576 186.675 90.3974 176.694 90.094C168.643 89.8504 160.8 89.3928 157.528 89.1492C150.203 88.5971 166.922 81.1673 173.263 79.8594C179.604 78.5465 186.626 77.2386 186.954 77.2386C187.197 77.2386 189.102 76.234 190.097 75.7019C190.142 75.6969 190.186 75.6869 190.236 75.677C193.921 74.563 197.736 75.5328 199.889 75.9306C200.938 80.5606 202.032 87.692 199.277 89.1492Z" fill="#FADAD4"/>
<path d="M194.418 75.1599C193.548 76.0699 192.141 76.7811 191.211 77.6116C188.416 80.1031 181.349 88.1596 176.694 90.0891C168.643 89.8454 160.8 89.3879 157.528 89.1442C150.203 88.5922 166.922 81.1624 173.263 79.8545C179.604 78.5416 186.626 77.2336 186.954 77.2336C187.198 77.2336 189.102 76.2291 190.097 75.6969H190.102C190.147 75.692 190.186 75.682 190.231 75.6721C191.643 75.2494 193.066 75.13 194.418 75.1599Z" fill="#DEA89E"/>
<path d="M191.211 75.4284C188.068 76.7413 184.741 78.7603 179.494 84.1164C174.248 89.4724 158.727 101.055 152.828 99.8513C150.138 99.2993 147.676 97.4394 145.662 95.3208C143.25 92.7945 141.47 89.92 140.699 88.4877L157.642 81.2767L158.244 81.8884L158.498 82.152C160.139 80.6253 177.744 73.5187 183.209 72.4296C188.675 71.3305 194.359 74.1204 191.211 75.4284Z" fill="#FADAD4"/>
<path d="M163.879 79.2826C161.561 80.2225 159.179 81.4309 157.319 83.1317C155.33 84.9469 154.171 87.4534 152.888 89.7758C152.833 89.8753 152.973 89.9698 153.037 89.8753C154.504 87.7319 155.822 85.3746 157.752 83.6092C159.617 81.9034 161.815 80.7397 163.948 79.4168C164.023 79.3621 163.963 79.2478 163.879 79.2826Z" fill="#DEA89E"/>
<path d="M158.244 81.8884C154.698 84.4048 148.964 89.2635 145.662 95.3258C143.25 92.7994 141.47 89.925 140.699 88.4927L157.642 81.2817L158.244 81.8884Z" fill="#DEA89E"/>
<path d="M148.974 52.9947C146.647 55.148 139.744 61.3445 138.491 65.9049C137.148 70.7835 137.312 88.1048 138.844 93.1326C139.242 94.4455 146.677 89.1144 149.909 87.0256C153.142 84.932 157.986 82.6543 158.841 81.9034C159.696 81.1574 148.974 52.9947 148.974 52.9947Z" fill="#768FF6"/>
<path d="M157.14 74.9908C157.046 73.8221 156.777 72.6484 156.643 71.4947C156.633 71.3902 156.474 71.3853 156.479 71.4947C156.518 72.1611 156.533 72.8473 156.578 73.5336C156.136 72.4246 155.673 71.3256 155.216 70.2315C155.186 70.1569 155.061 70.1867 155.091 70.2663C156.514 74.0309 157.289 78.0094 158.557 81.8188C158.642 82.0774 158.995 81.968 158.955 81.7094C158.642 79.392 157.956 77.169 157.14 74.9908Z" fill="#2F2962"/>
<path d="M154.241 70.306C151.426 64.7311 145.165 62.1352 139.451 64.2338C139.411 64.2488 139.431 64.3184 139.471 64.3035C145.225 62.4584 151.242 64.8654 154.126 70.3806C154.191 70.4999 154.305 70.4254 154.241 70.306Z" fill="#2F2962"/>
<path d="M161.676 80.2622C161.989 80.113 154.798 78.1835 152.033 79.0289C149.263 79.8694 143.713 87.9705 144.459 89.358C145.2 90.7455 150.436 86.3245 151.317 86.1305C151.749 86.036 155.375 83.9921 157.831 82.5648C157.826 82.5648 160.308 80.9038 161.676 80.2622Z" fill="#FADAD4"/>
<path d="M173.457 46.2909C173.457 46.2909 173.148 50.0804 169.324 51.1347C165.5 52.199 159.114 47.564 158.552 46.639C158.349 46.3008 157.971 43.864 157.563 40.915C157.404 39.7314 157.235 38.4583 157.07 37.205C156.538 33.0326 156.081 29.0591 156.081 29.0591L157.946 29.3376L172.805 31.5307L173.248 41.5018L173.372 44.4509V44.4707L173.457 46.2909Z" fill="#FADAD4"/>
<path d="M173.257 41.5066C172.755 41.6955 172.243 41.8646 171.731 42.0039C167.046 43.277 161.774 43.2521 157.572 40.9197C157.413 39.7361 157.244 38.463 157.08 37.2098C156.548 33.0374 156.09 29.0638 156.09 29.0638L157.955 29.3423L172.815 31.5355L173.257 41.5066Z" fill="#DEA89E"/>
<path d="M174.357 9.03736C177.306 15.015 175.545 30.3621 171.124 35.7281C168.096 39.4032 161.238 40.7857 156.006 38.9059C153.629 38.0505 151.59 36.5237 150.396 34.2311C146.587 26.8908 149.034 8.81855 152.669 5.83965C159.089 0.588049 170.751 1.72689 174.357 9.03736Z" fill="#FADAD4"/>
<path d="M162.944 21.8977C162.954 21.8629 163.018 21.9475 163.013 21.9873C162.944 22.9421 163.028 24.0461 163.879 24.3943C163.903 24.4042 163.898 24.4539 163.869 24.449C162.824 24.255 162.725 22.7879 162.944 21.8977Z" fill="#2F2962"/>
<path d="M163.834 20.933C165.375 20.8783 165.375 23.9616 163.948 24.0163C162.545 24.0661 162.545 20.9778 163.834 20.933Z" fill="#2F2962"/>
<path d="M155.464 21.659C155.459 21.6242 155.39 21.7038 155.39 21.7436C155.419 22.6984 155.295 23.7975 154.43 24.1157C154.405 24.1257 154.405 24.1754 154.44 24.1704C155.489 24.0212 155.643 22.5591 155.464 21.659Z" fill="#2F2962"/>
<path d="M154.609 20.6595C153.072 20.5402 152.948 23.6285 154.375 23.7329C155.777 23.8423 155.897 20.759 154.609 20.6595Z" fill="#2F2962"/>
<path d="M161.467 29.8945C161.238 30.1183 161.009 30.4267 160.661 30.4565C160.328 30.4863 159.94 30.3322 159.632 30.2178C159.602 30.2079 159.572 30.2377 159.592 30.2675C159.841 30.6355 160.363 30.8643 160.805 30.7847C161.238 30.7101 161.452 30.3372 161.556 29.9393C161.576 29.8846 161.502 29.8597 161.467 29.8945Z" fill="#DEA89E"/>
<path d="M165.052 19.5206C164.629 19.4162 164.261 19.2471 163.859 19.0979C163.401 18.9288 163.023 18.8443 162.72 18.4365C162.561 18.2177 162.625 17.8248 162.824 17.6458C163.287 17.238 163.898 17.3026 164.455 17.4817C165.062 17.6756 165.48 17.979 165.823 18.5111C166.166 19.0233 165.609 19.6599 165.052 19.5206Z" fill="#2F2962"/>
<path d="M153.415 19.1029C153.843 19.0333 154.226 18.899 154.643 18.7846C155.111 18.6553 155.499 18.6056 155.832 18.2227C156.011 18.0188 155.976 17.6209 155.792 17.427C155.365 16.9794 154.753 16.9943 154.181 17.1236C153.559 17.2629 153.122 17.5314 152.729 18.0337C152.351 18.5161 152.853 19.1974 153.415 19.1029Z" fill="#2F2962"/>
<path d="M161.457 27.4826C160.919 28.3131 160.134 28.7656 159.283 28.9297C158.905 29.0043 158.503 29.0193 158.115 28.9845C158.04 28.9845 157.961 28.9745 157.891 28.9596C157.821 28.9496 157.757 28.9447 157.682 28.9297C157.573 28.9148 157.508 28.8203 157.488 28.7159V28.7109C157.488 28.6761 157.488 28.6463 157.498 28.6115C157.498 28.6115 157.498 28.6115 157.498 28.6065V28.522C157.478 27.7859 157.548 26.667 157.548 26.667C157.279 26.8013 155.907 27.4179 155.931 27.035C156.12 23.8522 156.334 20.3114 157.195 17.1833C157.219 17.0788 157.379 17.1037 157.369 17.2081C157.304 20.2765 156.707 23.3101 156.593 26.3885C157.031 26.2244 157.747 25.916 158.13 25.921C158.234 25.9509 157.951 28.0843 157.985 28.4125C157.985 28.4125 157.985 28.4275 157.99 28.4474C159.229 28.6065 160.159 28.2335 161.362 27.403C161.442 27.3433 161.516 27.408 161.457 27.4826Z" fill="#DEA89E"/>
<path d="M173.492 24.7872C171.159 24.7872 172.109 17.3424 171.393 14.3138C170.761 11.6433 167.599 9.41033 164.485 10.8724C162.576 11.7676 159.661 13.0158 156.951 12.2301C154.236 11.4443 153.758 8.42068 152.222 8.77377C150.814 9.09703 149.646 12.802 149.646 12.802C149.646 12.802 149.273 4.63117 156.518 1.24448C162.939 -1.7543 169.757 1.50806 171.159 2.29381C172.562 3.07956 175.317 4.56155 177.097 7.31168C179.022 10.2856 177.162 24.7872 173.492 24.7872Z" fill="#2F2962"/>
<path d="M172.482 25.011C172.482 25.011 175.282 19.819 177.595 20.7639C179.912 21.7088 178.196 28.9596 175.75 30.2079C173.303 31.4561 172.104 29.2132 172.104 29.2132L172.482 25.011Z" fill="#FADAD4"/>
<path d="M177.052 22.8278C177.092 22.8178 177.107 22.8775 177.072 22.8924C175.367 23.8274 174.616 25.5978 174.153 27.3981C174.611 26.672 175.292 26.2244 176.257 26.7565C176.307 26.7864 176.272 26.861 176.217 26.856C175.466 26.7864 174.949 26.9753 174.521 27.6169C174.218 28.0744 174.039 28.6264 173.845 29.1387C173.78 29.3077 173.482 29.258 173.522 29.064C173.527 29.0491 173.527 29.0342 173.532 29.0193C173.223 26.7516 174.626 23.345 177.052 22.8278Z" fill="#DEA89E"/>
<path d="M168.802 36.5983C171.398 35.4396 174.014 34.1018 175.705 31.6401C176.888 29.9195 177.878 28.0098 178.201 25.7371C177.977 26.5626 177.644 27.3981 177.207 28.1689C176.744 28.9746 176.172 29.7056 175.496 30.2576C175.501 30.2626 175.501 30.2626 175.491 30.2626C174.108 32.6795 171.562 34.9672 168.688 36.1557C168.424 36.2651 168.543 36.7077 168.802 36.5983Z" fill="white"/>
<path d="M171.527 26.6123C171.99 26.0355 173.427 23.0566 174.72 21.9426C174.725 21.9376 174.735 21.9277 174.735 21.9277C174.934 21.7288 175.138 21.5348 175.352 21.3657C175.73 21.0624 176.132 20.8236 176.545 20.7292C176.222 20.5899 175.844 20.5501 175.411 20.6297C173.422 21.0077 172.084 24.9762 171.358 26.4781C171.299 26.5825 171.448 26.7168 171.527 26.6123Z" fill="white"/>
<path d="M171.96 25.936C172.293 25.195 166.947 27.7661 161.377 26.6173C160.238 26.3835 157.06 25.1005 155.29 25.1005C153.52 25.1005 151.451 26.5327 149.004 26.7963C148.169 26.8858 148.89 34.1217 151.028 37.2896C151.729 38.3289 154.723 40.4624 156.553 40.6514C160.85 41.094 168.205 38.0256 169.329 36.5933C170.224 35.4445 168.792 32.958 171.96 25.936Z" fill="white"/>
<path d="M149.591 28.3827C151.123 27.7313 152.813 27.1544 154.42 26.8361C155.852 26.5526 157.15 27.0798 158.508 27.5622C162.148 28.8552 165.818 28.711 169.488 27.6666C169.533 27.6517 169.548 27.7263 169.508 27.7462C166.574 29.0342 163.381 29.2182 160.323 28.5071C158.652 28.1192 156.981 27.219 155.255 27.3284C153.37 27.4478 151.53 28.343 149.665 28.6712C149.496 28.701 149.432 28.4474 149.591 28.3827Z" fill="#BEC1DF"/>
<path d="M152.301 36.7525C153.46 37.3095 154.599 38.13 155.802 38.5229C157.24 38.9904 158.945 38.5179 160.368 38.1847C163.063 37.5532 165.644 36.4491 168.275 35.5391C168.295 35.5291 168.305 35.5689 168.285 35.5788C165.366 37.0061 162.317 38.2146 159.184 38.7716C158.135 38.9556 156.971 39.2241 155.927 38.9108C154.663 38.5329 153.4 37.588 152.276 36.8321C152.242 36.8072 152.266 36.7326 152.301 36.7525Z" fill="#BEC1DF"/>
<path d="M150.506 30.8196C153.246 30.0139 155.792 30.2129 158.572 30.5858C161.735 31.0085 164.893 30.919 168.046 30.4068C168.076 30.4018 168.091 30.4565 168.061 30.4615C165.271 31.0384 162.442 31.1926 159.612 30.8991C158.244 30.7599 156.887 30.5013 155.514 30.4068C153.818 30.2874 152.202 30.5858 150.546 30.9936C150.451 31.0185 150.412 30.8494 150.506 30.8196Z" fill="#BEC1DF"/>
<path d="M151.152 33.5896C153.763 35.002 156.285 35.6137 159.164 35.3451C162.009 35.0816 164.744 34.0123 167.464 33.0724C167.499 33.0625 167.514 33.1222 167.479 33.1371C162.029 35.4396 156.503 36.9912 151.083 33.7538C150.973 33.6941 151.043 33.5349 151.152 33.5896Z" fill="#BEC1DF"/>
<path d="M143.754 53.0046C146.812 55.4713 150.681 60.3797 151.616 61.6379C152.551 62.8961 157.206 91.1931 158.002 93.0083C158.797 94.8235 169.425 109.623 168.903 110.534C168.381 111.439 163.049 117.009 160.483 116.8C157.917 116.591 148.513 99.8712 146.698 97.7875C144.888 95.6888 143.754 53.0046 143.754 53.0046Z" fill="white"/>
<path d="M131.739 46.0572C125.597 45.8433 116.327 57.2218 115.059 62.0507C113.791 66.8796 121.042 85.5337 120.49 90.9097C119.938 96.2906 118.023 101.368 119.276 103.521C120.529 105.675 133.609 109.803 138.582 109.42C143.555 109.042 147.832 102.184 148.985 100.677C150.139 99.17 148.458 85.8868 148.732 85.0414C149.005 84.196 153.407 80.7943 152.71 76.239C152.009 71.6836 146.504 57.4605 144.982 55.4265C143.455 53.3925 137.711 46.2611 131.739 46.0572Z" fill="#BEC1DF"/>
<path d="M141.372 83.0472C139.129 83.8031 136.921 85.0414 134.583 85.4293C131.774 85.8918 128.984 84.6684 126.527 83.4401C126.457 83.4053 126.393 83.4998 126.457 83.5445C128.65 84.9917 131.042 86.3394 133.763 86.2051C136.423 86.0758 139.174 84.5292 141.501 83.3804C141.68 83.2909 141.571 82.9776 141.372 83.0472Z" fill="#2F2962"/>
<path d="M145.957 83.9523C143.694 83.7932 141.411 84.2955 139.318 85.126C139.213 85.1657 139.283 85.3398 139.387 85.31C141.551 84.6436 143.694 84.4098 145.947 84.3054C146.166 84.2955 146.186 83.9722 145.957 83.9523Z" fill="#2F2962"/>
<path d="M119.987 94.3014C119.987 94.3014 134.34 99.2198 139.502 98.7324C144.659 98.245 149.304 94.6196 149.304 94.6196C149.304 94.6196 153.247 110.126 154.158 115.661C155.068 121.196 157.112 147.161 157.077 148.076C157.047 148.991 150.174 156.525 138.617 156.122C127.059 155.724 109.996 149.936 108.942 148.613C107.888 147.29 114.393 113.174 116.073 106.988C117.759 100.806 119.987 94.3014 119.987 94.3014Z" fill="#2F2962"/>
<path d="M133.663 157.977C133.763 160.185 120.141 157.758 115.536 156.132C110.941 154.506 107.017 151.179 106.57 149.821C106.132 148.463 114.268 113.96 114.76 110.434C115.248 106.903 119.062 94.8832 119.321 92.685C119.579 90.4919 112.99 66.9044 111.816 65.3976C110.837 64.1394 119.311 53.8351 123.558 50.0307C124.393 49.2748 125.07 48.7775 125.472 48.6482C125.696 48.5736 126 49.1455 126.373 50.1848C128.272 55.5309 131.813 73.4341 133.415 82.6394C134.17 86.9709 134.344 99.2446 134.3 112.657C134.23 133.29 133.603 156.639 133.663 157.977Z" fill="white"/>
<path d="M126.119 110.752C124.667 113.234 123.692 115.75 121.619 117.844C119.719 119.764 117.685 121.599 115.342 122.961C115.283 122.996 115.318 123.091 115.387 123.071C118.078 122.389 120.241 120.306 122.121 118.361C124.11 116.307 125.552 113.592 126.398 110.872C126.452 110.708 126.209 110.598 126.119 110.752Z" fill="#2F2962"/>
<path d="M127.198 114.229C125.438 118.839 122.195 121.832 118.117 124.468C118.082 124.488 118.112 124.543 118.147 124.523C122.145 122.255 126.174 118.928 127.367 114.278C127.397 114.169 127.238 114.124 127.198 114.229Z" fill="#2F2962"/>
<path d="M138.388 48.7477C137.662 48.3051 145.047 71.0769 144.276 86.3543C143.505 101.632 143.048 157.321 144.599 158.479C146.151 159.633 156.56 152.527 158.36 150.015C160.16 147.509 156.018 113.294 154.247 107.848C152.477 102.398 150.826 97.5289 150.388 96.0419C149.951 94.5599 148.906 85.6531 149.16 85.1757C149.413 84.6933 152.895 81.4459 153.467 77.2436C154.038 73.0413 144.963 54.9093 144.346 53.7257C143.729 52.5471 138.865 49.0411 138.388 48.7477Z" fill="white"/>
<path d="M151.437 99.1501C150.323 95.1368 149.572 88.0352 149.388 85.5537C149.388 85.5537 149.393 85.5537 149.393 85.5487C151.572 83.087 154.053 79.5312 153.735 76.065C153.561 74.1702 152.75 72.2208 152.044 70.4304C151.93 68.9087 151.353 67.4118 150.766 66.0243C150.746 65.9795 150.671 66.0093 150.686 66.0541C150.985 66.9294 151.174 67.8146 151.358 68.7097C150.681 67.0636 149.926 65.4623 149.065 63.9007C149.03 63.8411 148.951 63.8908 148.976 63.9505C150.433 67.3421 151.94 70.7786 152.899 74.3492C153.989 78.3874 151.661 82.2366 149.05 85.1857C148.946 85.305 149.05 93.257 150.652 98.3047C152.168 103.094 153.819 107.838 155.262 112.652C155.287 112.732 155.411 112.707 155.391 112.622C154.352 108.052 152.691 103.661 151.437 99.1501Z" fill="#2F2962"/>
<path d="M134.305 112.662C133.579 112.483 133.062 95.5198 132.201 92.1082C131.341 88.7066 125.612 75.4931 125.403 74.4984C125.189 73.5138 129.571 67.2377 129.332 67.0437C129.088 66.8498 123.618 69.4159 123.051 68.7197C122.544 68.098 123.827 53.0942 124.319 49.9711C124.374 49.6329 125.413 47.6735 125.721 48.3051C129.635 56.1825 131.813 73.4292 133.415 82.6394C134.171 86.976 134.35 99.2496 134.305 112.662Z" fill="white"/>
<path d="M133.092 101.199C132.858 98.1953 132.977 95.1219 132.296 92.1728C131.276 87.7716 125.597 74.9808 125.627 74.9112C126.273 73.4192 128.854 68.3317 129.317 67.2128C129.382 67.0586 129.451 66.9045 129.118 67.0188C128.158 67.3471 123.896 68.9683 123.364 68.7197C122.946 68.5207 123.891 50.8463 124.856 49.0212C124.906 48.9217 124.732 48.8919 124.682 48.9913C123.275 51.9155 122.36 67.8145 123.041 69.1225C123.096 69.2269 123.225 69.2866 123.339 69.2567C125.249 68.7793 127.154 68.2522 128.919 67.367C128.133 68.3765 124.985 74.7222 125.025 74.8266C127.178 80.6054 130.431 86.3692 131.823 92.6105C132.549 95.8529 132.51 99.2695 132.828 102.567C133.116 105.575 133.504 108.574 134.056 111.543C134.076 111.643 134.22 111.603 134.205 111.508C133.783 108.077 133.36 104.65 133.092 101.199Z" fill="#2F2962"/>
<path d="M138.388 48.7477C137.304 48.9367 141.829 68.5804 142.332 72.544C142.839 76.5076 143.654 112.98 143.654 112.98C143.654 112.98 145.171 91.4667 145.579 90.2831C145.987 89.1045 147.663 72.539 147.593 71.803C147.528 71.067 142.481 65.6562 142.396 65.3778C142.312 65.0993 146.648 65.89 146.842 65.6214C147.036 65.3628 138.905 48.6582 138.388 48.7477Z" fill="white"/>
<path d="M147.966 71.6737C147.971 71.5792 144.699 67.2178 142.764 65.4673C144.008 65.6115 146.972 65.9696 147.101 65.7855C147.354 65.4325 142.347 54.5364 139.059 49.6229C139.044 49.5981 139.005 49.618 139.02 49.6428C141.844 54.7403 144.206 60.0565 146.514 65.3976C145.117 65.2186 142.521 65.2584 142.516 65.2584C142.431 65.2485 142.356 65.3429 142.426 65.4275C144.042 67.5361 147.474 71.8179 147.558 71.8229C146.723 78.3675 145.838 84.8972 144.967 91.4369C144.107 97.9367 143.391 104.7 143.863 111.26C143.863 111.294 143.913 111.294 143.913 111.26C143.888 104.571 144.495 98.076 145.43 91.4518C146.36 84.9072 147.658 78.3029 147.966 71.6737Z" fill="#2F2962"/>
<path d="M116.337 57.9131C114.402 60.4096 111.08 63.9057 109.275 70.9427C107.47 77.9796 103.377 102.109 103.491 104.287C103.601 106.471 115.492 121.111 117.302 121.663C117.854 121.833 120.301 119.6 122.215 117.193C123.792 115.213 125.214 113.095 125.239 112.339C125.269 111.478 116.814 101.085 116.988 100.219C117.158 99.354 118.948 86.0908 120.027 81.5951C120.624 79.0836 116.337 57.9131 116.337 57.9131Z" fill="white"/>
<path d="M114.422 63.0951C114.393 63.0652 114.353 63.105 114.378 63.1398C118.227 67.73 118.968 73.4889 119.759 79.2129C119.764 79.2627 119.848 79.2527 119.843 79.203C119.321 73.5287 118.456 67.4416 114.422 63.0951Z" fill="#2F2962"/>
<path d="M125.363 112.06C123.459 109.071 121.385 106.192 119.246 103.362C118.754 102.711 118.237 101.796 117.595 101.149C117.451 100.881 117.267 100.642 117.048 100.443C117.048 100.438 117.053 100.433 117.053 100.423C117.67 95.9524 118.625 91.5015 119.361 87.0356C119.699 86.2499 120.007 85.4542 120.35 84.6784C120.375 84.6187 120.281 84.5739 120.246 84.6287C120.007 85.0315 119.773 85.4442 119.55 85.857C119.768 84.4446 119.962 83.0273 120.107 81.61C120.112 81.5602 120.037 81.5503 120.022 81.5951C118.47 87.4832 117.371 93.9333 116.566 100.075C115.875 99.6425 115.029 99.3938 114.288 99.2098C114.258 99.2048 114.248 99.2446 114.273 99.2546C114.915 99.4983 115.566 99.7469 116.143 100.115C116.287 100.204 116.407 100.309 116.526 100.413C116.526 100.418 116.526 100.428 116.526 100.438C115.541 100.09 114.084 100.155 113.134 100.13C113.085 100.13 113.07 100.199 113.119 100.214C114.134 100.478 115.795 100.443 116.655 101.01C117.68 101.686 118.53 103.303 119.276 104.287C121.245 106.898 123.13 109.574 125.035 112.229C125.169 112.418 125.493 112.264 125.363 112.06Z" fill="#2F2962"/>
<path d="M117.237 121.459C115.914 120.067 114.442 118.844 113.05 117.531C113.025 117.506 112.98 117.541 113.01 117.57C114.318 118.963 115.541 120.435 116.924 121.753C117.123 121.942 117.431 121.663 117.237 121.459Z" fill="#2F2962"/>
<path d="M162.577 123.031L141.362 116.263C140.293 115.919 139.701 114.776 140.039 113.701L149.224 84.9121C149.567 83.8429 150.711 83.2511 151.785 83.5893L173.001 90.3577C174.07 90.7008 174.662 91.8446 174.324 92.9188L165.138 121.708C164.795 122.782 163.651 123.374 162.577 123.031Z" fill="#BFDDDA"/>
<path d="M167.028 90.5914L156.739 87.2942C156.296 87.155 156.052 86.6825 156.197 86.2399L156.838 84.2358C156.977 83.7932 157.45 83.5495 157.892 83.6937L168.182 86.9909C168.624 87.1301 168.868 87.6026 168.724 88.0452L168.082 90.0493C167.943 90.487 167.471 90.7307 167.028 90.5914Z" fill="white"/>
<path d="M166.874 84.5292L166.282 86.3792L164.82 85.9117L165.094 85.0613C165.238 84.6137 164.989 84.1313 164.541 83.9921L162.607 83.3704C162.159 83.2262 161.677 83.4749 161.538 83.9224L161.264 84.7728L159.802 84.3054L160.394 82.4554C160.603 81.8039 161.294 81.4458 161.946 81.6547L166.078 82.9776C166.72 83.1814 167.083 83.8777 166.874 84.5292Z" fill="white"/>
<path d="M172.817 106.525C171.941 105.705 165.422 102.95 164.452 103.417C163.328 103.964 169.37 107.142 169.35 107.226C169.326 107.336 163.746 103.546 162.751 104.357C161.901 105.053 168.371 108.927 168.371 108.927C168.371 108.927 162.353 104.994 161.617 105.635C160.787 106.361 166.635 110.573 166.556 110.608C166.556 110.608 162.453 107.455 161.597 107.868C160.861 108.221 164.318 111.294 165.322 112.558C166.327 113.821 169.808 113.254 170.813 112.697C171.822 112.14 173.926 107.565 172.817 106.525Z" fill="#E1916E"/>
<path d="M121.3 54.4121C121.171 49.981 128.118 48.3996 131.43 47.952C135.648 47.3751 139.303 47.768 141.198 51.8857C143.067 55.9487 143.888 60.6632 144.495 65.0794C144.609 65.9049 145.892 65.7507 145.778 64.9202C145.077 59.8327 144.251 50.1899 139.228 47.4099C134.26 44.6598 119.798 47.0618 120.017 54.5662C120.042 55.4017 121.325 55.2376 121.3 54.4121Z" fill="#2F2962"/>
<path d="M148.384 67.0686C148.583 68.6998 147.424 70.1818 145.793 70.3807C144.162 70.5796 142.68 69.4209 142.481 67.7897C142.282 66.1585 143.44 64.6766 145.072 64.4776C146.703 64.2787 148.185 65.4374 148.384 67.0686Z" fill="#768FF6"/>
<path d="M147.21 67.2079C147.329 68.1876 146.633 69.0828 145.648 69.2021C144.669 69.3215 143.774 68.6252 143.654 67.6406C143.535 66.6608 144.231 65.7657 145.216 65.6463C146.195 65.5319 147.091 66.2282 147.21 67.2079Z" fill="#E4EFF8"/>
<path d="M125.249 68.4263C128.034 80.9635 127.407 83.9772 126.323 85.3647C125.179 86.8268 123.394 87.5727 123.319 87.6026L122.976 86.7671L123.15 87.1848L122.976 86.7671C122.991 86.7621 124.617 86.0758 125.617 84.8077C126.403 83.8031 127.129 81.0381 124.374 68.6252L125.249 68.4263Z" fill="#BEC1DF"/>
<path d="M124.205 86.1803L124.573 86.9063C124.712 87.1799 124.597 87.5131 124.329 87.6523L122.529 88.5574C122.255 88.6967 121.922 88.5823 121.783 88.3137L121.415 87.5876C121.275 87.3141 121.39 86.9809 121.658 86.8417L123.459 85.9366C123.732 85.7973 124.07 85.9067 124.205 86.1803Z" fill="#768FF6"/>
<path d="M117.138 68.4213C114.308 77.6762 113.512 82.7737 114.636 84.4595C115.536 85.8073 117.098 86.6129 117.113 86.6179L116.705 87.4235C116.63 87.3887 114.915 86.5035 113.885 84.9569C112.552 82.9477 113.244 78.084 116.277 68.1577L117.138 68.4213Z" fill="#BEC1DF"/>
<path d="M115.929 85.9366L115.507 86.6328C115.347 86.8914 115.432 87.2346 115.695 87.3937L117.421 88.438C117.68 88.5972 118.023 88.5126 118.182 88.2491L118.605 87.5528C118.764 87.2942 118.679 86.9511 118.416 86.7919L116.69 85.7476C116.427 85.5885 116.088 85.673 115.929 85.9366Z" fill="#768FF6"/>
<path d="M115.979 67.75C116.287 66.4669 117.158 63.2841 117.829 61.6977C118.376 60.3947 119.724 59.5543 119.724 59.5543C119.903 59.5443 119.888 57.9629 119.843 56.6748C119.803 55.536 119.739 54.2132 120.022 53.8551C120.301 53.5119 120.987 53.5169 121.26 53.8402C121.559 54.1883 121.524 55.5161 121.519 56.6549C121.509 57.948 121.539 59.5244 121.718 59.5294C121.718 59.5294 122.996 60.3947 123.563 61.648C124.195 63.0454 125.284 66.7553 125.473 67.8395C125.711 69.1822 125.264 69.3264 124.881 69.4458C124.334 69.6099 124.006 69.227 123.638 67.74C123.056 65.3828 122.364 61.4242 120.743 61.3744V61.3695C119.127 61.4689 118.311 65.6016 117.705 67.8991C117.322 69.3364 117.013 69.4657 116.461 69.3165C116.069 69.2121 115.676 69.028 115.979 67.75Z" fill="#768FF6"/>
<path d="M133.827 7.12279C133.827 7.12279 128.576 3.04981 120.917 8.11243C112.194 13.8812 114.929 23.3451 112.642 28.7558C110.354 34.1666 104.854 35.4397 106.097 41.5317C107.161 46.7535 124 48.1161 132.445 46.9922C142.863 45.6047 150.348 41.9147 151.432 37.5135C152.516 33.1123 146.255 30.4268 145.807 27.0848C145.36 23.7429 145.812 6.70504 133.827 7.12279Z" fill="#2F2962"/>
<path d="M116.456 12.9115C114.999 15.6467 113.95 18.5013 113.468 21.5747C113.144 23.6435 113.07 25.7173 112.179 27.6468C111.359 29.4272 110.096 30.9142 108.753 32.3216C107.047 34.1119 105.088 36.0663 105.426 38.7667C105.714 41.0693 107.445 42.6408 109.683 43.0088C109.733 43.0187 109.748 42.9292 109.698 42.9192C107.853 42.4617 106.346 41.1687 105.913 39.269C105.441 37.225 106.475 35.5093 107.788 34.0671C109.385 32.3066 111.11 30.7699 112.279 28.6613C113.517 26.4284 113.612 24.0662 113.965 21.5995C114.393 18.6206 115.248 15.6766 116.476 12.9264C116.476 12.9115 116.461 12.9016 116.456 12.9115Z" fill="#2F2962"/>
<path d="M151.994 33.52C150.636 30.8644 147.847 29.4222 146.593 26.6571C144.306 21.5896 145.614 15.2687 141.635 10.9322C141.6 10.8974 141.551 10.9471 141.58 10.9869C144.902 15.2986 144.097 20.9182 145.842 25.8067C146.568 27.8358 147.747 29.3128 149.289 30.7898C151.651 33.0575 153.715 36.305 151.387 39.4231C151.313 39.5226 151.472 39.6121 151.547 39.5226C152.999 37.7571 153.014 35.5192 151.994 33.52Z" fill="#2F2962"/>
<path d="M118.873 9.98726C115.516 12.3246 114.313 15.7909 113.492 19.65C113.04 21.7835 112.677 23.9418 112.04 26.0305C111.324 28.3728 110.15 30.377 108.867 32.4409C107.231 35.0716 105.366 38.5777 106.953 41.6809C108.688 45.0725 112.955 45.0626 116.222 44.9134C116.312 44.9084 116.317 44.7692 116.227 44.7692C112.229 44.9184 106.545 44.3713 106.619 39.0451C106.674 35.2656 109.509 32.5254 111.14 29.3525C114.387 23.0466 112.945 14.8858 118.933 10.0768C118.983 10.037 118.923 9.95244 118.873 9.98726Z" fill="#2F2962"/>
<path d="M137.358 50.0357C137.358 50.0357 138.218 62.195 136.667 62.6873C133.693 63.6322 127.835 50.2794 127.392 49.424C127.208 49.051 126.442 45.7041 125.965 42.402C125.92 42.0688 125.875 41.7406 125.83 41.4074C125.786 41.0742 125.746 40.7609 125.716 40.4426C125.666 40.0199 125.627 39.6071 125.582 39.1894C125.264 36.0513 125.01 33.3658 125.01 33.3658L126.507 33.8035L137 37.3195L137.219 45.366L137.239 45.8583V46.0174L137.293 48.4443V48.4642L137.358 50.0357Z" fill="#E1916E"/>
<path d="M137.249 45.8634C136.075 46.3905 134.747 46.6541 133.285 46.5695C130.187 46.4005 127.879 44.6151 125.965 42.4071C125.92 42.0739 125.875 41.7456 125.831 41.4124C125.786 41.0792 125.746 40.7659 125.716 40.4476C125.666 40.0249 125.627 39.6122 125.582 39.1944C125.264 36.0564 125.01 33.3709 125.01 33.3709L126.507 33.8085L137 37.3245L137.219 45.371L137.249 45.8634Z" fill="#9A593B"/>
<path d="M139.905 11.0317C139.905 11.0317 144.554 11.8622 145.833 17.6658C146.897 22.4997 143.893 27.0749 143.291 27.5275C142.227 28.3331 137.194 14.125 139.905 11.0317Z" fill="#2F2962"/>
<path d="M144.609 26.7169C144.908 40.9748 136.941 41.9247 134.524 42.3822C131.778 42.8994 121.027 42.7104 119.256 28.5569C117.491 14.4084 124.02 9.76355 130.401 9.30105C136.776 8.83856 144.311 12.459 144.609 26.7169Z" fill="#E1916E"/>
<path d="M131.659 27.7015C131.649 27.6667 131.59 27.7562 131.594 27.796C131.739 28.7558 131.744 29.8797 130.913 30.3074C130.888 30.3223 130.898 30.3671 130.928 30.3621C131.977 30.0786 131.953 28.5867 131.659 27.7015Z" fill="#2F2962"/>
<path d="M130.679 26.7964C129.113 26.866 129.366 29.9891 130.814 29.9245C132.241 29.8648 131.992 26.7367 130.679 26.7964Z" fill="#2F2962"/>
<path d="M139.014 27.1297C139.024 27.0948 139.089 27.1794 139.089 27.2192C139.039 28.1889 139.149 29.3079 140.019 29.646C140.044 29.656 140.044 29.7057 140.009 29.7007C138.94 29.5267 138.81 28.0397 139.014 27.1297Z" fill="#2F2962"/>
<path d="M139.9 26.1301C141.461 26.0405 141.526 29.1736 140.079 29.2581C138.652 29.3377 138.592 26.2047 139.9 26.1301Z" fill="#2F2962"/>
<path d="M132.286 34.9623C132.505 35.201 132.718 35.5292 133.067 35.5789C133.405 35.6287 133.808 35.4944 134.121 35.3949C134.151 35.385 134.181 35.4198 134.161 35.4446C133.887 35.8027 133.345 36.0066 132.902 35.9022C132.47 35.8027 132.271 35.4098 132.191 35.002C132.181 34.9424 132.256 34.9274 132.286 34.9623Z" fill="#9A593B"/>
<path d="M140.452 23.5739C140.118 23.5341 139.815 23.4446 139.487 23.3749C139.119 23.2954 138.816 23.2705 138.542 22.9821C138.398 22.8279 138.408 22.5196 138.542 22.3604C138.855 21.9974 139.333 21.9825 139.78 22.062C140.268 22.1466 140.621 22.3356 140.944 22.7086C141.252 23.0766 140.894 23.6236 140.452 23.5739Z" fill="#2F2962"/>
<path d="M129.426 24.2999C129.755 24.2303 130.048 24.1109 130.366 24.0065C130.724 23.8872 131.023 23.8325 131.266 23.5241C131.396 23.36 131.356 23.0517 131.207 22.9074C130.859 22.5743 130.381 22.6091 129.943 22.7334C129.466 22.8677 129.138 23.0915 128.849 23.4943C128.576 23.8822 128.994 24.3944 129.426 24.2999Z" fill="#2F2962"/>
<path d="M136.1 33.3211C136.1 33.3211 135.508 34.281 134.618 34.6838C134.29 34.833 133.932 34.9125 133.539 34.8429C132.738 34.7037 132.658 33.9875 132.748 33.356C132.823 32.8388 133.021 32.3862 133.021 32.3862C133.021 32.3862 134.255 33.3609 136.1 33.3211Z" fill="#2F2962"/>
<path d="M134.613 34.6837C134.285 34.8329 133.927 34.9125 133.534 34.8429C132.733 34.7036 132.654 33.9875 132.743 33.3559C133.593 33.3708 134.474 33.8731 134.613 34.6837Z" fill="#FADAD4"/>
<path d="M136.344 31.4513C136.344 31.4513 136.543 32.9034 136.543 33.5847C136.543 33.6494 136.378 33.6792 136.145 33.6941C136.135 33.6991 136.13 33.7041 136.12 33.6941C134.911 33.8831 133.698 33.4654 132.962 32.4807C132.912 32.416 133.002 32.3415 133.061 32.3862C133.962 33.0476 134.961 33.2167 136.03 33.2366C136.08 33.0476 135.603 30.765 135.712 30.755C136.085 30.7252 136.821 30.9788 137.264 31.1081C136.93 28.0745 136.12 25.1205 135.836 22.0968C135.826 21.9874 135.986 21.9576 136.015 22.0521C137.09 25.0907 137.547 28.5718 137.97 31.695C138.03 32.0779 136.617 31.5656 136.344 31.4513Z" fill="#9A593B"/>
<path d="M120.251 29.4322C122.608 29.646 124.125 23.3103 124.125 23.3103C124.125 23.3103 139.969 21.1171 139.9 11.0317C139.9 11.0317 130.888 4.04941 122.215 11.0814C113.542 18.1134 118.102 29.2382 120.251 29.4322Z" fill="#2F2962"/>
<path d="M121.598 30.1931C121.598 30.1931 118.784 25.5482 116.695 26.5229C114.606 27.4977 116.516 34.087 118.823 35.1264C121.131 36.1608 122.131 34.0473 122.131 34.0473L121.598 30.1931Z" fill="#E1916E"/>
<path d="M117.292 28.3978C117.252 28.3928 117.242 28.4426 117.277 28.4625C118.893 29.2432 119.664 30.8396 120.171 32.4758C119.719 31.8293 119.067 31.4463 118.207 31.9834C118.162 32.0133 118.197 32.0829 118.247 32.0729C118.938 31.9735 119.42 32.1227 119.843 32.6946C120.141 33.1024 120.33 33.6047 120.534 34.0622C120.604 34.2163 120.877 34.1517 120.828 33.9776C120.823 33.9627 120.818 33.9528 120.818 33.9379C120.997 31.8293 119.55 28.7608 117.292 28.3978Z" fill="#9A593B"/>
<path d="M116.207 31.2075C116.645 33.336 117.684 35.0865 118.903 36.6481C120.639 38.886 123.19 40.005 125.711 40.9598C125.965 41.0493 126.049 40.6266 125.791 40.5321C123.006 39.5673 120.474 37.5482 119.027 35.3352C119.012 35.3352 119.012 35.3352 119.017 35.3302C118.918 35.2606 118.823 35.186 118.729 35.1064C117.844 34.639 117.028 33.3659 116.486 31.9336C116.476 31.9087 116.471 31.8938 116.466 31.8739C116.367 31.6551 116.282 31.4313 116.207 31.2075Z" fill="white"/>
<path d="M118.674 26.9108C119.296 27.2738 119.898 27.8059 120.405 28.3381C120.41 28.343 120.415 28.343 120.42 28.353C120.728 28.6364 121.046 29.0094 121.35 29.4073C121.449 29.5316 121.544 29.6609 121.638 29.7902C121.792 29.9842 121.872 30.1035 121.872 30.1035L121.877 30.1234C122.563 31.118 123.14 32.1027 123.404 32.4011C123.483 32.4956 123.632 32.3762 123.583 32.2817C122.847 30.9092 121.494 27.2937 119.465 26.9307C119.172 26.876 118.908 26.871 118.674 26.9108Z" fill="white"/>
<path d="M122.498 30.7052C122.16 30.014 127.297 32.2867 132.544 31.0335C133.618 30.7749 136.587 29.4669 138.263 29.4172C139.939 29.3625 141.943 30.6605 144.266 30.8395C145.061 30.8992 144.594 37.777 142.664 40.8355C142.028 41.84 139.258 43.9536 137.532 44.1824C133.479 44.7294 126.417 42.0439 125.313 40.7211C124.428 39.6568 125.706 37.2548 122.498 30.7052Z" fill="white"/>
<path d="M143.933 33.0227C142.461 32.4508 140.844 31.9535 139.313 31.7048C137.945 31.481 136.736 32.0131 135.463 32.5154C132.052 33.8482 128.576 33.8234 125.07 32.9381C125.03 32.9282 125.015 32.9978 125.055 33.0127C127.874 34.1466 130.898 34.2262 133.777 33.4603C135.349 33.0426 136.901 32.1424 138.542 32.1922C140.332 32.2469 142.097 33.0426 143.878 33.2962C144.027 33.3211 144.082 33.0824 143.933 33.0227Z" fill="#BEC1DF"/>
<path d="M141.61 41.0294C140.531 41.5914 139.472 42.402 138.348 42.8098C137 43.2972 135.374 42.8993 134.016 42.6258C131.445 42.1086 128.968 41.1388 126.447 40.3531C126.427 40.3481 126.422 40.3829 126.437 40.3929C129.247 41.656 132.171 42.7103 135.15 43.143C136.15 43.2872 137.259 43.506 138.238 43.1778C139.427 42.78 140.591 41.85 141.635 41.104C141.67 41.0792 141.645 41.0095 141.61 41.0294Z" fill="#BEC1DF"/>
<path d="M143.132 35.36C140.516 34.6787 138.104 34.9423 135.483 35.3749C132.5 35.8673 129.511 35.8822 126.507 35.4893C126.477 35.4843 126.467 35.5341 126.497 35.544C129.158 36.0065 131.843 36.0712 134.514 35.7081C135.807 35.5341 137.085 35.2506 138.378 35.1163C139.979 34.9522 141.521 35.186 143.102 35.5241C143.192 35.544 143.227 35.3799 143.132 35.36Z" fill="#BEC1DF"/>
<path d="M142.605 38.0008C140.173 39.4181 137.806 40.0696 135.066 39.9055C132.365 39.7414 129.739 38.8064 127.138 38.0008C127.104 37.9908 127.094 38.0505 127.124 38.0605C132.355 40.0795 137.632 41.3825 142.674 38.155C142.779 38.0903 142.704 37.9461 142.605 38.0008Z" fill="#BEC1DF"/>
</svg>
