<svg width="12" height="12" viewBox="0 0 12 12" fill="none" xmlns="http://www.w3.org/2000/svg">
<rect width="12" height="12" fill="white"/>
<path d="M1.2 10.4348C1.2 9.38051 1.70571 8.36941 2.60588 7.62392C3.50606 6.87844 4.72696 6.45963 6 6.45963C7.27304 6.45963 8.49394 6.87844 9.39411 7.62392C10.2943 8.36941 10.8 9.38051 10.8 10.4348H9.6C9.6 9.64408 9.22071 8.88575 8.54558 8.32664C7.87045 7.76752 6.95478 7.45342 6 7.45342C5.04522 7.45342 4.12954 7.76752 3.45441 8.32664C2.77928 8.88575 2.4 9.64408 2.4 10.4348H1.2ZM6 5.96273C4.011 5.96273 2.4 4.62857 2.4 2.98137C2.4 1.33416 4.011 0 6 0C7.989 0 9.6 1.33416 9.6 2.98137C9.6 4.62857 7.989 5.96273 6 5.96273ZM6 4.96894C7.326 4.96894 8.4 4.0795 8.4 2.98137C8.4 1.88323 7.326 0.993789 6 0.993789C4.674 0.993789 3.6 1.88323 3.6 2.98137C3.6 4.0795 4.674 4.96894 6 4.96894Z" fill="#C7C7C7"/>
</svg>
