<svg width="20" height="23" viewBox="0 0 20 23" fill="none" xmlns="http://www.w3.org/2000/svg">
<rect width="20" height="23" fill="white"/>
<path d="M2 20C2 17.9793 2.84285 16.0414 4.34315 14.6125C5.84344 13.1837 7.87827 12.381 10 12.381C12.1217 12.381 14.1566 13.1837 15.6569 14.6125C17.1571 16.0414 18 17.9793 18 20H16C16 18.4845 15.3679 17.031 14.2426 15.9594C13.1174 14.8878 11.5913 14.2857 10 14.2857C8.4087 14.2857 6.88258 14.8878 5.75736 15.9594C4.63214 17.031 4 18.4845 4 20H2ZM10 11.4286C6.685 11.4286 4 8.87143 4 5.71429C4 2.55714 6.685 0 10 0C13.315 0 16 2.55714 16 5.71429C16 8.87143 13.315 11.4286 10 11.4286ZM10 9.52381C12.21 9.52381 14 7.81905 14 5.71429C14 3.60952 12.21 1.90476 10 1.90476C7.79 1.90476 6 3.60952 6 5.71429C6 7.81905 7.79 9.52381 10 9.52381Z" fill="#C7C7C7"/>
</svg>
