<svg width="41" height="26" viewBox="0 0 41 26" fill="none" xmlns="http://www.w3.org/2000/svg">
<rect width="41" height="26" rx="12" fill="white"/>
<path d="M28.8889 23H11.1111C10.8164 23 10.5338 22.8946 10.3254 22.7071C10.1171 22.5196 10 22.2652 10 22V4C10 3.73478 10.1171 3.48043 10.3254 3.29289C10.5338 3.10536 10.8164 3 11.1111 3H28.8889C29.1836 3 29.4662 3.10536 29.6746 3.29289C29.8829 3.48043 30 3.73478 30 4V22C30 22.2652 29.8829 22.5196 29.6746 22.7071C29.4662 22.8946 29.1836 23 28.8889 23ZM27.7778 21V5H12.2222V21H27.7778ZM14.4444 7H18.8889V11H14.4444V7ZM14.4444 13H25.5556V15H14.4444V13ZM14.4444 17H25.5556V19H14.4444V17ZM21.1111 8H25.5556V10H21.1111V8Z" fill="#C7C7C7"/>
</svg>
