<svg width="53" height="53" viewBox="0 0 53 53" fill="none" xmlns="http://www.w3.org/2000/svg">
<g clip-path="url(#clip0_1131_14542)">
<circle cx="26.1635" cy="26.1635" r="26.1635" fill="#28C6F5"/>
<path d="M17.17 13.627H15.6029C14.7717 13.627 13.9745 13.9572 13.3867 14.5449C12.799 15.1327 12.4688 15.9299 12.4688 16.7611V22.2459C12.4688 24.5318 13.3768 26.7241 14.9932 28.3405C16.6096 29.9568 18.8018 30.8649 21.0877 30.8649C23.3736 30.8649 25.5659 29.9568 27.1823 28.3405C28.7986 26.7241 29.7067 24.5318 29.7067 22.2459V16.7611C29.7067 15.9299 29.3765 15.1327 28.7887 14.5449C28.2009 13.9572 27.4038 13.627 26.5725 13.627H25.0054" stroke="white" stroke-width="3" stroke-linecap="round" stroke-linejoin="round"/>
<path d="M20.3041 30.8646C20.3041 32.0994 20.5473 33.322 21.0198 34.4628C21.4923 35.6036 22.1849 36.6401 23.058 37.5132C23.9311 38.3863 24.9677 39.0789 26.1084 39.5514C27.2492 40.0239 28.4719 40.2671 29.7066 40.2671C30.9414 40.2671 32.164 40.0239 33.3048 39.5514C34.4456 39.0789 35.4821 38.3863 36.3552 37.5132C37.2283 36.6401 37.9209 35.6036 38.3934 34.4628C38.8659 33.322 39.1091 32.0994 39.1091 30.8646V26.1633M25.0053 12.0596V15.1937M17.1699 12.0596V15.1937" stroke="white" stroke-width="3" stroke-linecap="round" stroke-linejoin="round"/>
<path d="M39.1098 26.1634C40.8407 26.1634 42.2439 24.7601 42.2439 23.0292C42.2439 21.2982 40.8407 19.895 39.1098 19.895C37.3788 19.895 35.9756 21.2982 35.9756 23.0292C35.9756 24.7601 37.3788 26.1634 39.1098 26.1634Z" stroke="white" stroke-width="3" stroke-linecap="round" stroke-linejoin="round"/>
</g>
<defs>
<clipPath id="clip0_1131_14542">
<rect width="52.33" height="52.33" fill="white"/>
</clipPath>
</defs>
</svg>
